<svg  viewBox="0 0 20 20" fill="none" xmlns="http://www.w3.org/2000/svg">
<mask id="mask0_655_44761" style="mask-type:alpha" maskUnits="userSpaceOnUse" x="0" y="0" width="20" height="20">
<rect width="20" height="20" fill="#D9D9D9"/>
</mask>
<g mask="url(#mask0_655_44761)">
<path d="M9.37504 10.625V13.3333C9.37504 13.5104 9.43496 13.6588 9.55479 13.7786C9.67464 13.8984 9.82314 13.9583 10.0003 13.9583C10.1775 13.9583 10.3259 13.8984 10.4455 13.7786C10.5652 13.6588 10.625 13.5104 10.625 13.3333V10.625H13.3334C13.5104 10.625 13.6589 10.5651 13.7787 10.4452C13.8984 10.3254 13.9583 10.1769 13.9583 9.99973C13.9583 9.82256 13.8984 9.67415 13.7787 9.5545C13.6589 9.43485 13.5104 9.37502 13.3334 9.37502H10.625V6.66666C10.625 6.48958 10.5651 6.34114 10.4452 6.22135C10.3254 6.10157 10.1769 6.04169 9.99975 6.04169C9.82258 6.04169 9.67417 6.10157 9.55452 6.22135C9.43487 6.34114 9.37504 6.48958 9.37504 6.66666V9.37502H6.66669C6.4896 9.37502 6.34117 9.43494 6.2214 9.55477C6.1016 9.67462 6.04171 9.82312 6.04171 10.0003C6.04171 10.1774 6.1016 10.3258 6.2214 10.4455C6.34117 10.5652 6.4896 10.625 6.66669 10.625H9.37504ZM10.0014 17.9166C8.90647 17.9166 7.87728 17.7089 6.91383 17.2933C5.95037 16.8778 5.1123 16.3138 4.39962 15.6014C3.68693 14.8891 3.12271 14.0514 2.70698 13.0883C2.29124 12.1253 2.08337 11.0963 2.08337 10.0014C2.08337 8.90645 2.29115 7.87725 2.70671 6.91381C3.12226 5.95035 3.68622 5.11228 4.39858 4.3996C5.11096 3.68691 5.94866 3.12269 6.91169 2.70696C7.8747 2.29122 8.90368 2.08335 9.99862 2.08335C11.0936 2.08335 12.1228 2.29113 13.0862 2.70669C14.0497 3.12224 14.8877 3.6862 15.6004 4.39856C16.3131 5.11093 16.8773 5.94864 17.2931 6.91166C17.7088 7.87468 17.9167 8.90366 17.9167 9.9986C17.9167 11.0935 17.7089 12.1227 17.2933 13.0862C16.8778 14.0496 16.3138 14.8877 15.6015 15.6004C14.8891 16.3131 14.0514 16.8773 13.0884 17.293C12.1253 17.7088 11.0964 17.9166 10.0014 17.9166Z" fill="currentColor"/>
</g>
</svg>
