<svg xmlns="http://www.w3.org/2000/svg" viewBox="0 0 28 28" fill="none">
  <path fill-rule="evenodd" clip-rule="evenodd" d="M4.95837 4.66667C4.95837 4.18342 5.35012 3.79167 5.83337 3.79167H22.1667C22.65 3.79167 23.0417 4.18342 23.0417 4.66667V23.3333C23.0417 23.6611 22.8585 23.9614 22.5671 24.1114C22.2757 24.2613 21.9248 24.2359 21.6581 24.0454L14 18.5753L6.34196 24.0454C6.07524 24.2359 5.72443 24.2613 5.43299 24.1114C5.14155 23.9614 4.95837 23.6611 4.95837 23.3333V4.66667ZM6.70837 5.54167V21.633L13.4915 16.788C13.7957 16.5707 14.2044 16.5707 14.5086 16.788L21.2917 21.633V5.54167H6.70837Z" fill="currentColor"/>
</svg>