<svg viewBox="0 0 28 28" fill="none" xmlns="http://www.w3.org/2000/svg">
    <path fill-rule="evenodd" clip-rule="evenodd"
        d="M17.792 8.16667C17.792 7.16105 17.3925 6.19663 16.6814 5.48555C15.9704 4.77448 15.0059 4.375 14.0003 4.375C12.9947 4.375 12.0303 4.77448 11.3192 5.48555C10.6081 6.19663 10.2087 7.16105 10.2087 8.16667L17.792 8.16667ZM8.45866 8.16667C8.45866 6.69692 9.04251 5.28738 10.0818 4.24812C11.121 3.20885 12.5306 2.625 14.0003 2.625C15.4701 2.625 16.8796 3.20885 17.9189 4.24812C18.9581 5.28738 19.542 6.69692 19.542 8.16667H22.167C22.8113 8.16667 23.3337 8.689 23.3337 9.33333V23.3333C23.3337 23.9777 22.8113 24.5 22.167 24.5H5.83366C5.18933 24.5 4.66699 23.9777 4.66699 23.3333V9.33333C4.66699 8.689 5.18933 8.16667 5.83366 8.16667L8.45866 8.16667ZM6.41699 22.75V9.91667H21.5837V22.75H6.41699Z"
        fill="currentColor" />
</svg>