<svg  viewBox="0 0 40 40" fill="none" xmlns="http://www.w3.org/2000/svg">
<circle cx="20" cy="20" r="20" fill="#616161"/>
<g clip-path="url(#clip0_13372_65977)">
<path d="M20.0013 9C12.8196 9 7 13.6216 7 19.3258C7 23.0368 9.4659 26.2926 13.1674 28.1111C12.896 29.1301 12.1821 31.8062 12.0398 32.378C11.8633 33.0873 12.298 33.0794 12.5825 32.8888C12.8065 32.738 16.1444 30.4563 17.5855 29.4742C18.3679 29.5907 19.1741 29.6516 19.9987 29.6516C27.1777 29.6516 33 25.03 33 19.3258C33 13.6216 27.1804 9 20.0013 9Z" fill="white"/>
<path d="M10.9305 17.4255H12.2688C12.2688 17.4255 12.2767 21.118 12.2688 21.9783C12.2688 22.6056 13.6599 22.6136 13.6599 21.9862L13.6651 17.4732C13.6651 17.4732 14.113 17.4758 14.9955 17.4758C15.8281 17.4758 15.8281 16.1603 14.9955 16.1603C14.0577 16.1603 10.9252 16.1338 10.9252 16.1338C10.1401 16.1338 10.1428 17.4229 10.9252 17.4229" fill="#616161"/>
<mask id="mask0_13372_65977" style="mask-type:luminance" maskUnits="userSpaceOnUse" x="10" y="16" width="6" height="7">
<path d="M10.9305 17.4255H12.2688C12.2688 17.4255 12.2767 21.118 12.2688 21.9783C12.2688 22.6056 13.6599 22.6136 13.6599 21.9862L13.6651 17.4732C13.6651 17.4732 14.113 17.4758 14.9955 17.4758C15.8281 17.4758 15.8281 16.1603 14.9955 16.1603C14.0577 16.1603 10.9252 16.1338 10.9252 16.1338C10.1401 16.1338 10.1428 17.4229 10.9252 17.4229" fill="white"/>
</mask>
<g mask="url(#mask0_13372_65977)">
<path d="M15.8305 16.1362H10.1426V22.616H15.8305V16.1362Z" fill="#616161"/>
</g>
<path d="M17.3351 17.6639L18.0807 20.0091H16.529L17.3351 17.6639ZM16.5 16.5654C16.1707 17.2933 14.9825 20.7344 14.5873 21.6476C14.3028 22.3067 15.5331 22.844 15.8176 22.1849L16.0864 21.2453H18.5338C18.5338 21.2453 18.4495 21.285 18.7736 22.1452C19.037 22.844 20.3095 22.3596 20.0434 21.6608C19.6667 20.6629 18.3678 17.0736 18.1307 16.5654C18.0227 16.3298 17.6302 16.1631 17.2508 16.1631C16.9373 16.1631 16.6291 16.2796 16.5 16.5654Z" fill="#616161"/>
<mask id="mask1_13372_65977" style="mask-type:luminance" maskUnits="userSpaceOnUse" x="14" y="16" width="7" height="7">
<path d="M17.3351 17.6639L18.0807 20.0091H16.529L17.3351 17.6639ZM16.5 16.5654C16.1707 17.2933 14.9825 20.7344 14.5873 21.6476C14.3028 22.3067 15.5331 22.844 15.8176 22.1849L16.0864 21.2453H18.5338C18.5338 21.2453 18.4495 21.285 18.7736 22.1452C19.037 22.844 20.3095 22.3596 20.0434 21.6608C19.6667 20.6629 18.3678 17.0736 18.1307 16.5654C18.0227 16.3298 17.6302 16.1631 17.2508 16.1631C16.9373 16.1631 16.6291 16.2796 16.5 16.5654Z" fill="white"/>
</mask>
<g mask="url(#mask1_13372_65977)">
<path d="M20.3121 16.1631H14.3027V22.8467H20.3121V16.1631Z" fill="#616161"/>
</g>
<path d="M20.5146 16.7825C20.5146 17.9524 20.5226 21.7217 20.5226 21.7217C20.5226 21.7217 20.4145 22.4708 21.0547 22.4708C21.6949 22.4708 23.1123 22.4629 23.7419 22.4629C24.3716 22.4629 24.3663 21.1182 23.7393 21.1182C23.1123 21.1182 21.9636 21.1103 21.9636 21.1103C21.9636 21.1103 21.9689 17.6242 21.9663 16.7772C21.9663 16.3669 21.6027 16.1631 21.2418 16.1631C20.8808 16.1631 20.5173 16.3695 20.5173 16.7798" fill="#616161"/>
<mask id="mask2_13372_65977" style="mask-type:luminance" maskUnits="userSpaceOnUse" x="20" y="16" width="5" height="7">
<path d="M20.5146 16.7825C20.5146 17.9524 20.5226 21.7217 20.5226 21.7217C20.5226 21.7217 20.4145 22.4708 21.0547 22.4708C21.6949 22.4708 23.1123 22.4629 23.7419 22.4629C24.3716 22.4629 24.3663 21.1182 23.7393 21.1182C23.1123 21.1182 21.9636 21.1103 21.9636 21.1103C21.9636 21.1103 21.9689 17.6242 21.9663 16.7772C21.9663 16.3669 21.6027 16.1631 21.2418 16.1631C20.8808 16.1631 20.5173 16.3695 20.5173 16.7798" fill="white"/>
</mask>
<g mask="url(#mask2_13372_65977)">
<path d="M24.369 16.1631H20.4146V22.4681H24.369V16.1631Z" fill="#616161"/>
</g>
<path d="M24.5378 16.5943C24.551 17.1078 24.522 21.7427 24.522 22.0868C24.522 22.6294 25.8972 22.6268 25.8946 22.0868C25.8946 21.4568 25.8946 20.263 25.8946 20.263L26.2976 19.9374L28.0628 22.3568C28.4184 22.8306 29.5407 21.9756 29.1851 21.5018L27.3119 19.0216C27.3119 19.0216 28.5844 17.6399 29.0849 17.1396C29.3774 16.8484 28.4711 15.9299 28.1787 16.2238C27.8941 16.507 25.9025 18.5107 25.9025 18.5107C25.9025 18.5107 25.9209 17.2534 25.9025 16.5573C25.8946 16.2926 25.5731 16.1655 25.2438 16.1655C24.8908 16.1655 24.5299 16.3111 24.5378 16.5943Z" fill="#616161"/>
<mask id="mask3_13372_65977" style="mask-type:luminance" maskUnits="userSpaceOnUse" x="24" y="16" width="6" height="7">
<path d="M24.5378 16.5943C24.551 17.1078 24.522 21.7427 24.522 22.0868C24.522 22.6294 25.8972 22.6268 25.8946 22.0868C25.8946 21.4568 25.8946 20.263 25.8946 20.263L26.2976 19.9374L28.0628 22.3568C28.4184 22.8306 29.5407 21.9756 29.1851 21.5018L27.3119 19.0216C27.3119 19.0216 28.5844 17.6399 29.0849 17.1396C29.3774 16.8484 28.4711 15.9299 28.1787 16.2238C27.8941 16.507 25.9025 18.5107 25.9025 18.5107C25.9025 18.5107 25.9209 17.2534 25.9025 16.5573C25.8946 16.2926 25.5731 16.1655 25.2438 16.1655C24.8908 16.1655 24.5299 16.3111 24.5378 16.5943Z" fill="white"/>
</mask>
<g mask="url(#mask3_13372_65977)">
<path d="M29.5434 15.9326H24.522V22.828H29.5434V15.9326Z" fill="#616161"/>
</g>
</g>
<defs>
<clipPath id="clip0_13372_65977">
<rect width="26" height="24" fill="white" transform="translate(7 9)"/>
</clipPath>
</defs>
</svg>
