<svg xmlns="http://www.w3.org/2000/svg" viewBox="0 0 14 14" fill="none">
  <g clip-path="url(#clip0_3070_47245)">
    <path fill-rule="evenodd" clip-rule="evenodd" d="M7 14C10.866 14 14 10.866 14 7C14 3.13401 10.866 0 7 0C3.13401 0 0 3.13401 0 7C0 10.866 3.13401 14 7 14ZM6.08107 11.5148L9.63149 7.7333C10.0117 7.32831 10.0117 6.67169 9.63149 6.2667L6.08107 2.4852C5.89095 2.28271 5.58271 2.28271 5.39259 2.4852C5.20247 2.6877 5.20247 3.01601 5.39259 3.2185L8.943 7L5.39259 10.7815C5.20247 10.984 5.20247 11.3123 5.39259 11.5148C5.58271 11.7173 5.89095 11.7173 6.08107 11.5148Z" fill="currentColor"/>
  </g>
  <defs>
    <clipPath id="clip0_3070_47245">
      <rect width="14" height="14" fill="white"/>
    </clipPath>
  </defs>
</svg>