<svg xmlns="http://www.w3.org/2000/svg" viewBox="0 0 28 28" fill="none">
  <path fill-rule="evenodd" clip-rule="evenodd" d="M22.7855 6.45203C23.1273 6.11032 23.1273 5.5563 22.7855 5.21459C22.4438 4.87289 21.8898 4.87289 21.5481 5.21459L14.0002 12.7625L6.45221 5.21459C6.11051 4.87289 5.55649 4.87289 5.21478 5.21459C4.87307 5.5563 4.87307 6.11032 5.21478 6.45203L12.7627 14L5.21478 21.5479C4.87307 21.8896 4.87307 22.4437 5.21478 22.7854C5.55649 23.1271 6.11051 23.1271 6.45221 22.7854L14.0002 15.2374L21.5481 22.7854C21.8898 23.1271 22.4438 23.1271 22.7855 22.7854C23.1273 22.4437 23.1273 21.8896 22.7855 21.5479L15.2376 14L22.7855 6.45203Z" fill="currentColor"/>
</svg>