<svg  viewBox="0 0 24 24" fill="none" xmlns="http://www.w3.org/2000/svg">
<mask id="mask0_300_2576" style="mask-type:alpha" maskUnits="userSpaceOnUse" x="0" y="0" width="24" height="24">
<rect width="24" height="24" fill="currentColor"/>
</mask>
<g mask="url(#mask0_300_2576)">
<path d="M11.3846 20.5V19H18.6923C18.7756 19 18.8477 18.9744 18.9086 18.9231C18.9695 18.8718 19 18.8045 19 18.7211V11.7269C19 9.81537 18.316 8.20607 16.9481 6.89902C15.5801 5.59199 13.9307 4.93847 12 4.93847C10.0692 4.93847 8.41985 5.59199 7.0519 6.89902C5.68395 8.20607 4.99998 9.81537 4.99998 11.7269V17.6153H4.25C3.77052 17.6153 3.35898 17.4484 3.0154 17.1144C2.6718 16.7804 2.5 16.3737 2.5 15.8942V13.9519C2.5 13.6276 2.59231 13.3304 2.77693 13.0606C2.96154 12.7907 3.20257 12.5737 3.5 12.4096L3.54618 11.1327C3.62821 10.0442 3.91089 9.03592 4.39423 8.10772C4.87756 7.17951 5.49743 6.37149 6.25383 5.68367C7.01024 4.99586 7.88332 4.45996 8.87305 4.076C9.8628 3.69201 10.9051 3.50002 12 3.50002C13.0948 3.50002 14.1346 3.69201 15.1192 4.076C16.1038 4.45996 16.9769 4.9933 17.7384 5.676C18.5 6.35868 19.1198 7.16412 19.598 8.09232C20.0762 9.02052 20.3615 10.0289 20.4538 11.1173L20.5 12.3692C20.791 12.5064 21.0304 12.7026 21.2182 12.9577C21.406 13.2128 21.5 13.4974 21.5 13.8115V16.0442C21.5 16.3583 21.406 16.6429 21.2182 16.898C21.0304 17.1532 20.791 17.3493 20.5 17.4865V18.7211C20.5 19.2134 20.3233 19.633 19.9701 19.9798C19.6169 20.3266 19.191 20.5 18.6923 20.5H11.3846ZM9.1923 13.7692C8.94743 13.7692 8.73878 13.6862 8.56635 13.5202C8.39392 13.3542 8.3077 13.1487 8.3077 12.9038C8.3077 12.659 8.39392 12.4519 8.56635 12.2827C8.73878 12.1135 8.94743 12.0288 9.1923 12.0288C9.43717 12.0288 9.64582 12.1135 9.81825 12.2827C9.99068 12.4519 10.0769 12.659 10.0769 12.9038C10.0769 13.1487 9.99068 13.3542 9.81825 13.5202C9.64582 13.6862 9.43717 13.7692 9.1923 13.7692ZM14.8077 13.7692C14.5628 13.7692 14.3541 13.6862 14.1817 13.5202C14.0093 13.3542 13.923 13.1487 13.923 12.9038C13.923 12.659 14.0093 12.4519 14.1817 12.2827C14.3541 12.1135 14.5628 12.0288 14.8077 12.0288C15.0525 12.0288 15.2612 12.1135 15.4336 12.2827C15.606 12.4519 15.6923 12.659 15.6923 12.9038C15.6923 13.1487 15.606 13.3542 15.4336 13.5202C15.2612 13.6862 15.0525 13.7692 14.8077 13.7692ZM6.37115 12.2C6.2673 10.5679 6.77499 9.17147 7.89423 8.01057C9.01346 6.84969 10.3987 6.26925 12.05 6.26925C13.4371 6.26925 14.6612 6.69842 15.7221 7.55675C16.783 8.41507 17.4269 9.52627 17.6538 10.8904C16.2333 10.8737 14.9208 10.5006 13.7163 9.77115C12.5118 9.04167 11.5872 8.04167 10.9423 6.77117C10.6885 8.01476 10.1564 9.11411 9.34615 10.0692C8.53588 11.0243 7.54422 11.7346 6.37115 12.2Z" fill="currentColor"/>
</g>
</svg>
