<svg viewBox="0 0 16 16" fill="none" xmlns="http://www.w3.org/2000/svg">
<path fill-rule="evenodd" clip-rule="evenodd" d="M13 8C13 10.7614 10.7614 13 8 13C6.79938 13 5.6976 12.5768 4.83568 11.8715L11.8715 4.83568C12.5768 5.6976 13 6.79938 13 8ZM4.12856 11.1644L11.1644 4.12856C10.3025 3.4232 9.20065 3 8 3C5.23858 3 3 5.23858 3 8C3 9.20065 3.4232 10.3025 4.12856 11.1644ZM14 8C14 11.3137 11.3137 14 8 14C4.68629 14 2 11.3137 2 8C2 4.68629 4.68629 2 8 2C11.3137 2 14 4.68629 14 8Z" fill="currentColor"/>
</svg>
