<svg viewBox="0 0 28 28" fill="none" xmlns="http://www.w3.org/2000/svg">
    <path fill-rule="evenodd" clip-rule="evenodd"
        d="M22.7851 6.45209C23.1268 6.11038 23.1268 5.55636 22.7851 5.21466C22.4434 4.87295 21.8893 4.87295 21.5476 5.21466L13.9997 12.7626L6.45173 5.21466C6.11002 4.87295 5.556 4.87295 5.21429 5.21466C4.87258 5.55636 4.87258 6.11038 5.21429 6.45209L12.7622 14L5.21429 21.548C4.87258 21.8897 4.87258 22.4437 5.21429 22.7854C5.556 23.1271 6.11002 23.1271 6.45173 22.7854L13.9997 15.2375L21.5476 22.7854C21.8893 23.1271 22.4434 23.1271 22.7851 22.7854C23.1268 22.4437 23.1268 21.8897 22.7851 21.548L15.2371 14L22.7851 6.45209Z"
        fill="currentColor" />
</svg>