<svg viewBox="0 0 24 24" fill="currentColor" xmlns="http://www.w3.org/2000/svg">
<path fill-rule="evenodd" clip-rule="evenodd" d="M9 8C9 9.10457 8.10457 10 7 10C5.89543 10 5 9.10457 5 8C5 6.89543 5.89543 6 7 6C8.10457 6 9 6.89543 9 8ZM7 12C8.86384 12 10.4299 10.7252 10.874 9H20V7H10.874C10.4299 5.27477 8.86384 4 7 4C4.79086 4 3 5.79086 3 8C3 10.2091 4.79086 12 7 12ZM19 16C19 17.1046 18.1046 18 17 18C15.8954 18 15 17.1046 15 16C15 14.8954 15.8954 14 17 14C18.1046 14 19 14.8954 19 16ZM13.126 17C13.5701 18.7252 15.1362 20 17 20C19.2091 20 21 18.2091 21 16C21 13.7909 19.2091 12 17 12C15.1362 12 13.5701 13.2748 13.126 15H4V17H13.126Z" fill="currentColor"/>
</svg>
