<svg viewBox="0 0 24 24" fill="currentColor" xmlns="http://www.w3.org/2000/svg">
<path fill-rule="evenodd" clip-rule="evenodd" d="M15.25 5.58623C15.25 3.82061 13.4542 2.62289 11.8241 3.3013C11.2981 3.52023 10.8637 3.91397 10.5943 4.41604L9.45626 6.53689C9.24733 6.92624 9.00544 7.29699 8.73322 7.64505L7.47801 9.25H5C4.58579 9.25 4.25 9.58579 4.25 10V20C4.25 20.4142 4.58579 20.75 5 20.75L8 20.75C8.00057 20.75 8.00114 20.75 8.00171 20.75H16.0248C17.8212 20.75 19.3653 19.476 19.7065 17.7123L20.519 13.5123C20.9667 11.1984 19.1941 9.05 16.8373 9.05H14.8007L15.2073 6.71064C15.2357 6.54698 15.25 6.38117 15.25 6.21505V5.58623ZM8.75 19.25H16.0248C17.1026 19.25 18.0291 18.4856 18.2338 17.4274L19.0463 13.2274C19.3149 11.839 18.2514 10.55 16.8373 10.55H13.9091C13.6877 10.55 13.4777 10.4522 13.3351 10.2828C13.1926 10.1134 13.1323 9.88968 13.1702 9.67158L13.7294 6.4538C13.7431 6.37495 13.75 6.29507 13.75 6.21505V5.58623C13.75 4.89072 13.0426 4.41891 12.4005 4.68615C12.1933 4.77239 12.0221 4.92749 11.916 5.12527L10.778 7.24612C10.5286 7.71096 10.2398 8.15358 9.91478 8.56913L8.75 10.0585V19.25ZM7.25 19.25V10.75H5.75V19.25H7.25Z" fill="currentColor"/>
</svg>
