<svg  viewBox="0 0 16 16" fill="none" xmlns="http://www.w3.org/2000/svg">
<path fill-rule="evenodd" clip-rule="evenodd" d="M13.5515 2.97545C13.5607 2.57335 13.2372 2.24243 12.835 2.24243C12.433 2.24243 12.1096 2.57304 12.1185 2.97495L12.21 7.10979C12.2175 7.4488 12.4945 7.7197 12.8336 7.7197C13.1725 7.7197 13.4494 7.44906 13.4571 7.11023L13.5515 2.97545ZM12.2425 9.84092C12.4066 10.0025 12.6036 10.0833 12.8334 10.0833C12.9849 10.0833 13.1225 10.0467 13.2463 9.97349C13.3725 9.89773 13.4735 9.79672 13.5493 9.67046C13.6276 9.5442 13.6667 9.40405 13.6667 9.25001C13.6667 9.02273 13.5834 8.82829 13.4167 8.66667C13.2526 8.50506 13.0581 8.42425 12.8334 8.42425C12.6036 8.42425 12.4066 8.50506 12.2425 8.66667C12.0808 8.82829 12 9.02273 12 9.25001C12 9.48233 12.0808 9.6793 12.2425 9.84092ZM6.58282 11.6618L7.83297 9.80143L4.94234 7.85891L3.69219 9.71924C3.15577 10.5175 3.36802 11.5994 4.16624 12.1358C4.96447 12.6722 6.04641 12.46 6.58282 11.6618ZM9.64087 7.11113L8.39073 8.97143L5.5001 7.02891L6.75024 5.16861C7.28665 4.37039 8.36859 4.15814 9.16681 4.69455C9.96504 5.23097 10.1773 6.31291 9.64087 7.11113ZM9.72458 3.86456C8.46796 3.0201 6.76469 3.35423 5.92024 4.61085L2.86219 9.16148C2.01773 10.4181 2.35186 12.1214 3.60848 12.9658C4.8651 13.8103 6.56836 13.4761 7.41282 12.2195L10.4709 7.66889C11.3153 6.41227 10.9812 4.70901 9.72458 3.86456Z" fill="currentColor"/>
</svg>
