<svg xmlns="http://www.w3.org/2000/svg" viewBox="0 0 102 20" fill="none">
  <g clip-path="url(#clip0_8484_1279)">
    <path d="M0 19.949V0H9.46799C10.8298 0 12.0197 0.227587 13.0357 0.684888C14.0516 1.14006 14.8485 1.78241 15.4241 2.60768C15.9998 3.43507 16.2876 4.38796 16.2876 5.47272C16.2876 6.36605 16.0664 7.16792 15.6261 7.88046C15.1836 8.593 14.5607 9.19707 13.7552 9.69052C14.7519 10.1095 15.5444 10.7115 16.1287 11.5006C16.7129 12.2897 17.0072 13.1766 17.0072 14.1657C17.0072 15.3249 16.7086 16.3373 16.1158 17.2009C15.5208 18.0666 14.6917 18.7408 13.6263 19.2237C12.561 19.7086 11.3281 19.9511 9.92764 19.9511H0V19.949ZM4.17339 8.17824H9.21024C10.1124 8.17824 10.8212 7.95916 11.341 7.52313C11.8586 7.0871 12.1185 6.50643 12.1185 5.78539C12.1185 5.06434 11.8586 4.48793 11.341 4.06041C10.8233 3.63288 10.1124 3.42019 9.21024 3.42019H4.17339V8.18037V8.17824ZM4.17339 16.5288H9.6119C10.5913 16.5288 11.3624 16.2969 11.9295 15.8311C12.4944 15.3653 12.7779 14.7442 12.7779 13.9636C12.7779 13.183 12.4944 12.5577 11.9295 12.0834C11.3624 11.6091 10.5913 11.3708 9.6119 11.3708H4.17339V16.5288Z" fill="#FF6700"/>
    <path d="M34.5103 19.949V0.599854H38.4538V19.949H34.5103Z" fill="#FF6700"/>
    <path d="M57.1235 19.949V5.10057H61.0671V6.32571C62.2184 5.31965 63.6296 4.81555 65.2985 4.81555C66.4498 4.81555 67.4722 5.06866 68.3635 5.57063C69.2549 6.07472 69.9509 6.76812 70.4492 7.65082C70.9475 8.53351 71.1966 9.55659 71.1966 10.7137V19.9469H67.2832V11.3135C67.2832 10.3436 66.9996 9.57999 66.4347 9.01847C65.8677 8.45907 65.1052 8.17831 64.1472 8.17831C63.4749 8.17831 62.8799 8.30593 62.3623 8.56329C61.8446 8.82066 61.4129 9.1865 61.0671 9.66081V19.949H57.1235Z" fill="#FF6700"/>
    <path d="M80.6453 19.9489C79.1869 19.9489 77.8681 19.6129 76.6889 18.9365C75.5097 18.2622 74.5689 17.3412 73.8687 16.1714C73.1685 15.0037 72.8184 13.6871 72.8184 12.2237C72.8184 10.7604 73.1642 9.4778 73.8537 8.3186C74.5453 7.15939 75.4839 6.23841 76.6739 5.55352C77.8638 4.86864 79.1869 4.52832 80.6453 4.52832C81.8546 4.52832 82.9995 4.75591 84.0842 5.21321C85.1689 5.66838 86.0946 6.32562 86.8614 7.18066L84.4729 9.71815C83.9166 9.10984 83.3367 8.66317 82.731 8.37815C82.1274 8.09314 81.4701 7.95063 80.7592 7.95063C79.9924 7.95063 79.3008 8.13568 78.6865 8.50577C78.0722 8.87587 77.5932 9.38422 77.2474 10.0308C76.9015 10.6774 76.7297 11.4176 76.7297 12.2535C76.7297 13.0894 76.9123 13.7786 77.2774 14.4337C77.6426 15.0888 78.1301 15.6078 78.7444 15.9864C79.3587 16.3671 80.059 16.5564 80.8451 16.5564C81.5174 16.5564 82.1446 16.4139 82.731 16.1289C83.3152 15.8439 83.878 15.4163 84.4149 14.8463L86.7755 17.2966C85.9894 18.1325 85.0679 18.7833 84.0133 19.2492C82.9587 19.715 81.8353 19.9468 80.6453 19.9468V19.9489Z" fill="#FF6700"/>
    <path d="M94.8929 19.949C93.3958 19.949 92.0383 19.6023 90.8204 18.9089C89.6025 18.2155 88.6381 17.2945 87.9272 16.1438C87.2162 14.9953 86.8618 13.6978 86.8618 12.2536C86.8618 10.8094 87.2012 9.53106 87.8842 8.36334C88.5651 7.19563 89.4909 6.26827 90.6615 5.58551C91.8321 4.90062 93.1273 4.5603 94.547 4.5603C95.9668 4.5603 97.2663 4.907 98.3897 5.6004C99.513 6.29379 100.394 7.2403 101.038 8.43566C101.68 9.63315 102.002 11.0008 102.002 12.5386V13.5638H90.8935C91.0653 14.153 91.3531 14.6847 91.7569 15.159C92.1607 15.6334 92.6483 15.9992 93.2239 16.2566C93.7996 16.5139 94.4225 16.6416 95.0948 16.6416C95.7671 16.6416 96.362 16.5416 96.9377 16.3417C97.5133 16.1417 98.003 15.8524 98.4047 15.4717L100.995 17.8093C100.074 18.5495 99.1285 19.0918 98.1598 19.4343C97.1911 19.7767 96.1021 19.9469 94.8929 19.9469V19.949ZM90.8355 10.7732H98.1448C97.9901 10.184 97.7367 9.66718 97.3823 9.22052C97.0279 8.77385 96.6005 8.42715 96.1021 8.18042C95.6038 7.93369 95.0668 7.81033 94.4912 7.81033C93.8769 7.81033 93.3206 7.92944 92.8223 8.16554C92.324 8.40376 91.9051 8.7462 91.57 9.19074C91.235 9.63741 90.9901 10.1649 90.8355 10.7732Z" fill="#FF6700"/>
    <path d="M50.598 9.98625C50.5293 9.95434 50.4584 9.92457 50.3896 9.89479C48.7508 6.68092 44.9876 5.15162 39.6157 5.51108V9.25457C41.9097 9.05888 43.5421 9.28647 44.6998 9.73314C43.5314 10.2394 42.5111 11.1135 41.7228 12.3323C40.7455 13.8446 40.5715 15.8057 41.2782 17.3286C41.9763 18.8281 43.3574 19.8172 44.9748 19.9703C45.1681 19.9894 45.3571 19.9979 45.5461 19.9979C47.1076 19.9979 48.5274 19.3726 49.5928 18.2028C50.293 17.4328 50.787 16.4778 51.0491 15.4271C51.4786 16.4586 51.6526 17.8944 51.6526 19.949H55.4329C55.4329 17.2286 55.4329 12.1643 50.6001 9.98625H50.598ZM46.7855 15.6972C46.4031 16.1162 45.9155 16.2991 45.3399 16.246C45.0757 16.2204 44.8416 16.0418 44.7127 15.7653C44.543 15.4015 44.6289 14.7826 44.9082 14.3529C45.5783 13.315 46.431 12.9704 47.273 12.9704C47.331 12.9704 47.3869 12.9704 47.4427 12.9747C47.5974 14.0467 47.3546 15.074 46.7855 15.6993V15.6972Z" fill="#FF6700"/>
    <path d="M33.3487 9.44804V5.67052C32.0664 5.83643 30.7411 6.09167 29.3751 6.449C28.7307 5.109 27.7877 3.99021 26.615 3.20961C24.8043 2.00361 22.5468 1.67818 20.2572 2.29713L18.4336 2.79059L19.4281 6.4022L21.2517 5.90875C22.4974 5.57056 23.5929 5.70881 24.5036 6.315C24.9976 6.64468 25.4186 7.10198 25.7494 7.65925C23.7518 8.51642 21.4213 9.87982 19.8555 11.9536C18.8481 13.2872 18.4787 14.874 18.8438 16.3076C19.2562 17.9283 20.3732 19.1067 21.9046 19.5406C22.3428 19.6639 22.8024 19.7235 23.2728 19.7235C24.8129 19.7235 26.4453 19.079 27.6352 17.9411C29.8884 15.7843 30.5006 12.5598 30.3201 10.0755C31.3619 9.80325 32.3714 9.59693 33.3487 9.45017V9.44804ZM25.0062 15.2483C24.3919 15.8375 23.4425 16.08 22.9421 15.9396C22.8175 15.9034 22.6285 15.8503 22.5125 15.393C22.4309 15.0675 22.5726 14.6102 22.8862 14.1955C23.6766 13.1511 24.9589 12.1876 26.5613 11.4091C26.4668 12.9639 25.9083 14.3869 25.0083 15.2483H25.0062Z" fill="#FF6700"/>
  </g>
  <defs>
    <clipPath id="clip0_8484_1279">
      <rect width="102" height="20" fill="white"/>
    </clipPath>
  </defs>
</svg>