<svg viewBox="0 0 25 24" fill="none" xmlns="http://www.w3.org/2000/svg">
<g clip-path="url(#clip0_4878_38710)">
<path fill-rule="evenodd" clip-rule="evenodd" d="M3.75 10L3.75001 9.98534L3.75004 9.97226C3.75014 9.94071 3.75041 9.9092 3.75084 9.87774C2.87651 10.1864 2.25 11.02 2.25 12C2.25 12.98 2.87651 13.8136 3.75084 14.1223C3.75028 14.0816 3.75 14.0408 3.75 14V10ZM5.25 14V10.7391C7.26356 10.6158 10.4441 9.39258 12.1901 5.29395C12.3524 4.91287 12.1751 4.47235 11.794 4.31001C11.4129 4.14767 10.9724 4.32499 10.8101 4.70607C9.35257 8.12743 6.80718 9.09799 5.2901 9.23293C5.67324 5.58946 8.75502 2.75 12.5 2.75C15.8256 2.75 18.6282 4.98912 19.4825 8.042C19.1558 7.89916 18.831 7.69625 18.5232 7.4448C17.8969 6.93323 17.4192 6.28328 17.1972 5.72345C17.0444 5.33842 16.6085 5.1501 16.2235 5.30283C15.8384 5.45556 15.6501 5.8915 15.8028 6.27653C16.1328 7.10831 16.781 7.95848 17.5742 8.60648C18.1872 9.1072 18.9338 9.52485 19.7438 9.69636C19.7479 9.79705 19.75 9.89828 19.75 10V14C19.75 18.0041 16.5041 21.25 12.5 21.25C8.49594 21.25 5.25 18.0041 5.25 14ZM0.75 12C0.75 10.1276 2.12229 8.5757 3.91598 8.29521C4.70914 4.27879 8.25087 1.25 12.5 1.25C16.7491 1.25 20.2909 4.27879 21.084 8.29521C22.8777 8.5757 24.25 10.1276 24.25 12C24.25 13.6403 23.1969 15.0346 21.7299 15.5437C21.7532 15.9223 21.8456 16.4477 22.0223 17.0221C22.2775 17.8522 22.6493 18.5883 23.0306 18.9697C23.5388 19.4778 23.8055 20.1389 23.6438 20.8151C23.4858 21.4759 22.9666 21.9462 22.3413 22.1964C21.1443 22.6752 19.3575 22.4717 17.3482 21.2852C15.9604 22.2106 14.2932 22.75 12.5 22.75C10.7069 22.75 9.0397 22.2106 7.65192 21.2853C5.64269 22.4717 3.85592 22.6751 2.65892 22.1964C2.03363 21.9462 1.51446 21.4759 1.35644 20.8151C1.19474 20.1389 1.46145 19.4778 1.96964 18.9697C2.35097 18.5883 2.72272 17.8522 2.97799 17.0221C3.15464 16.4477 3.24705 15.9224 3.27037 15.5437C1.80325 15.0347 0.75 13.6404 0.75 12ZM18.6066 20.2667C20.1308 21.044 21.2364 21.0228 21.7843 20.8036C22.0965 20.6787 22.1711 20.5241 22.1849 20.4662C22.1951 20.4236 22.2118 20.2722 21.97 20.0303C21.3315 19.3919 20.8699 18.378 20.5885 17.463C20.5814 17.44 20.5744 17.4169 20.5675 17.3938C20.1097 18.4808 19.4386 19.4559 18.6066 20.2667ZM4.43264 17.3941C4.89047 18.481 5.56154 19.456 6.39346 20.2668C4.86938 21.044 3.76382 21.0228 3.21599 20.8036C2.90376 20.6787 2.82916 20.5241 2.81531 20.4662C2.80513 20.4236 2.78843 20.2722 3.03028 20.0303C3.66878 19.3919 4.13033 18.378 4.41172 17.463L4.43264 17.3941ZM21.2492 14.1223C22.1235 13.8136 22.75 12.98 22.75 12C22.75 11.02 22.1235 10.1864 21.2492 9.87774C21.2497 9.91842 21.25 9.95918 21.25 10V14C21.25 14.0408 21.2497 14.0816 21.2492 14.1223ZM11 12.25C11 12.9404 10.4404 13.5 9.75 13.5C9.05964 13.5 8.5 12.9404 8.5 12.25C8.5 11.5596 9.05964 11 9.75 11C10.4404 11 11 11.5596 11 12.25ZM15.25 13.5C15.9404 13.5 16.5 12.9404 16.5 12.25C16.5 11.5596 15.9404 11 15.25 11C14.5596 11 14 11.5596 14 12.25C14 12.9404 14.5596 13.5 15.25 13.5ZM10.2285 16.8208C10.1481 16.4931 9.85246 16.25 9.5 16.25C9.08579 16.25 8.75 16.5858 8.75 17C8.75 17.4664 9.03424 17.7913 9.27152 17.9783C9.51727 18.172 9.82639 18.3136 10.1415 18.4186C10.7796 18.6313 11.6134 18.75 12.5 18.75C13.3866 18.75 14.2204 18.6313 14.8585 18.4186C15.1736 18.3136 15.4827 18.172 15.7285 17.9783C15.9658 17.7913 16.25 17.4664 16.25 17C16.25 16.5858 15.9142 16.25 15.5 16.25C15.1475 16.25 14.8519 16.4931 14.7715 16.8208C14.704 16.8664 14.5802 16.9303 14.3841 16.9956C13.9364 17.1448 13.2702 17.25 12.5 17.25C11.7298 17.25 11.0636 17.1448 10.6159 16.9956C10.4198 16.9303 10.296 16.8664 10.2285 16.8208ZM14.8204 16.7824C14.8205 16.7824 14.8196 16.7834 14.8174 16.7855L14.8194 16.7834L14.8204 16.7824ZM10.1826 16.7855C10.1804 16.7834 10.1795 16.7824 10.1796 16.7824C10.1796 16.7824 10.1807 16.7834 10.1826 16.7855ZM14.2399 4.8767C14.1718 4.46812 13.7854 4.1921 13.3768 4.2602C12.9682 4.3283 12.6922 4.71472 12.7603 5.12329L12.7753 5.21401C12.9513 6.28867 13.4109 9.09414 16.7629 10.2115C17.1559 10.3425 17.5806 10.1301 17.7116 9.73717C17.8426 9.34421 17.6302 8.91947 17.2373 8.78848C14.7493 7.95914 14.4216 5.97626 14.2521 4.95012L14.2399 4.8767Z" fill="currentColor"/>
</g>
<defs>
<clipPath id="clip0_4878_38710">
<rect width="24" height="24" fill="white" transform="translate(0.5)"/>
</clipPath>
</defs>
</svg>
