<svg xmlns="http://www.w3.org/2000/svg" viewBox="0 0 22 16" fill="none">
  <path fill-rule="evenodd" clip-rule="evenodd" d="M0.791504 1C0.791504 0.516751 1.18325 0.125 1.6665 0.125H20.3332C20.8164 0.125 21.2082 0.516751 21.2082 1C21.2082 1.48325 20.8164 1.875 20.3332 1.875H1.6665C1.18325 1.875 0.791504 1.48325 0.791504 1ZM0.791504 8C0.791504 7.51675 1.18325 7.125 1.6665 7.125H20.3332C20.8164 7.125 21.2082 7.51675 21.2082 8C21.2082 8.48325 20.8164 8.875 20.3332 8.875H1.6665C1.18325 8.875 0.791504 8.48325 0.791504 8ZM1.6665 14.125C1.18325 14.125 0.791504 14.5168 0.791504 15C0.791504 15.4832 1.18325 15.875 1.6665 15.875H20.3332C20.8164 15.875 21.2082 15.4832 21.2082 15C21.2082 14.5168 20.8164 14.125 20.3332 14.125H1.6665Z" fill="currentColor"/>
</svg>