<svg xmlns="http://www.w3.org/2000/svg" viewBox="0 0 24 24" fill="none">
  <g clip-path="url(#clip0_12580_3099)">
    <path fill-rule="evenodd" clip-rule="evenodd" d="M17.7062 4.8125H6.21477C4.58831 4.8125 3.26367 6.14273 3.26367 7.76359V14.9066C3.26367 16.533 4.5939 17.8577 6.21477 17.8577H10.2725L10.9712 19.0649L11.6586 20.2554C11.7816 20.4734 12.0946 20.4734 12.2232 20.2554L12.9106 19.0649L13.6093 17.8577H17.7117C19.3382 17.8577 20.6628 16.5275 20.6628 14.9066V7.76918C20.6628 6.14273 19.3326 4.8125 17.7062 4.8125ZM12.7648 10.044C11.8761 10.044 11.1551 10.7538 11.1551 11.6313C11.1551 12.5088 11.8761 13.2187 12.7648 13.2187C13.6534 13.2187 14.3745 12.5088 14.3745 11.6313C14.3745 10.7538 13.659 10.044 12.7648 10.044ZM12.7648 12.3914C12.34 12.3914 11.9935 12.0505 11.9935 11.6313C11.9935 11.2121 12.34 10.8712 12.7648 10.8712C13.1895 10.8712 13.5361 11.2121 13.5361 11.6313C13.5361 12.0505 13.1951 12.3914 12.7648 12.3914ZM6.7513 10.4073C7.00282 10.1781 7.32699 10.044 7.67352 10.044C8.47836 10.044 9.12112 10.7594 9.12112 11.6369C9.12112 12.5144 8.47277 13.2242 7.67352 13.2242C7.3214 13.2242 7.00282 13.0845 6.7513 12.861V13.146H5.85703V9.09382H6.7513V10.4073ZM6.75689 11.9443C6.87985 12.2294 7.1649 12.425 7.49467 12.425C7.9418 12.425 8.29951 12.0729 8.29951 11.6313C8.29951 11.1898 7.9418 10.8377 7.49467 10.8377C7.1649 10.8377 6.87985 11.0333 6.75689 11.3183C6.71218 11.4133 6.68982 11.5195 6.68982 11.6313C6.68982 11.7431 6.71777 11.8493 6.75689 11.9443ZM17.164 10.1111V10.3626C16.9125 10.167 16.5995 10.0496 16.2641 10.0496C15.4425 10.0496 14.7774 10.7371 14.7774 11.581C14.7774 12.425 15.4425 13.1125 16.2641 13.1125C16.6051 13.1125 16.9181 12.9951 17.164 12.7995V13.2243C17.164 13.2243 17.0746 13.6434 16.4486 13.6434V14.4315C16.4486 14.4315 17.1249 14.5098 17.7285 13.9061C17.7285 13.9061 18.0079 13.6099 18.0694 13.2187V10.1111H17.164ZM16.4318 12.3579C15.9791 12.3579 15.6158 12.0058 15.6158 11.5754C15.6158 11.1451 15.9847 10.793 16.4318 10.793C16.7504 10.793 17.0298 10.9718 17.164 11.2289C17.2199 11.3351 17.2478 11.4525 17.2478 11.5754C17.2478 11.6984 17.2143 11.8214 17.164 11.922C17.0298 12.1847 16.7504 12.3579 16.4318 12.3579ZM9.22148 9.82601V9.01558C9.22148 9.01558 9.81394 8.93733 10.3393 9.55773C10.3393 9.55773 10.5797 9.85955 10.6356 10.262V10.2843V13.146H9.71333V10.2843C9.63509 9.88191 9.22148 9.82601 9.22148 9.82601Z" fill="currentColor"/>
    <path fill-rule="evenodd" clip-rule="evenodd" d="M20.3681 1.21062H3.63186C2.29464 1.21062 1.21062 2.29464 1.21062 3.63185V20.3681C1.21062 21.7054 2.29464 22.7894 3.63185 22.7894H20.3681C21.7054 22.7894 22.7894 21.7054 22.7894 20.3681V3.63186C22.7894 2.29464 21.7054 1.21062 20.3681 1.21062ZM3.63186 0H20.3681C22.374 0 24 1.62604 24 3.63186V20.3681C24 22.374 22.374 24 20.3681 24H3.63185C1.62603 24 0 22.374 0 20.3681V3.63185C0 1.62603 1.62604 0 3.63186 0Z" fill="currentColor"/>
  </g>
  <defs>
    <clipPath id="clip0_12580_3099">
      <rect width="24" height="24" fill="white"/>
    </clipPath>
  </defs>
</svg>
