<svg width="16" height="16" viewBox="0 0 16 16" fill="none" xmlns="http://www.w3.org/2000/svg">
<path fill-rule="evenodd" clip-rule="evenodd" d="M6.2223 4.04934C6.2223 3.28569 6.84137 2.66663 7.60502 2.66663H8.39514C9.1588 2.66663 9.77786 3.28569 9.77786 4.04934V6.02465C9.77786 6.13374 9.8663 6.22218 9.97539 6.22218H11.9507C12.7144 6.22218 13.3334 6.84124 13.3334 7.6049V8.39502C13.3334 9.15867 12.7144 9.77774 11.9507 9.77774H9.97539C9.8663 9.77774 9.77786 9.86617 9.77786 9.97527V11.9506C9.77786 12.7142 9.1588 13.3333 8.39514 13.3333H7.60502C6.84137 13.3333 6.2223 12.7142 6.2223 11.9506V9.97527C6.2223 9.86617 6.13387 9.77774 6.02477 9.77774H4.04946C3.28581 9.77774 2.66675 9.15867 2.66675 8.39502V7.6049C2.66675 6.84124 3.28581 6.22218 4.04946 6.22218H6.02477C6.13387 6.22218 6.2223 6.13374 6.2223 6.02465V4.04934ZM7.60502 3.85181C7.49593 3.85181 7.40749 3.94025 7.40749 4.04934V6.02465C7.40749 6.7883 6.78843 7.40737 6.02477 7.40737H4.04946C3.94037 7.40737 3.85193 7.4958 3.85193 7.6049V8.39502C3.85193 8.50411 3.94037 8.59255 4.04946 8.59255H6.02477C6.78843 8.59255 7.40749 9.21161 7.40749 9.97527V11.9506C7.40749 12.0597 7.49593 12.1481 7.60502 12.1481H8.39514C8.50424 12.1481 8.59267 12.0597 8.59267 11.9506V9.97527C8.59267 9.21161 9.21174 8.59255 9.97539 8.59255H11.9507C12.0598 8.59255 12.1482 8.50411 12.1482 8.39502V7.6049C12.1482 7.4958 12.0598 7.40737 11.9507 7.40737H9.97539C9.21174 7.40737 8.59267 6.7883 8.59267 6.02465V4.04934C8.59267 3.94025 8.50424 3.85181 8.39514 3.85181H7.60502Z" fill="white"/>
</svg>
