<svg xmlns="http://www.w3.org/2000/svg" viewBox="0 0 20 20" fill="none">
  <path fill-rule="evenodd" clip-rule="evenodd" d="M7.3684 6.35135C7.3684 4.89601 8.54631 3.71622 9.99935 3.71622C11.4524 3.71622 12.6303 4.89601 12.6303 6.35135C12.6303 7.8067 11.4524 8.98649 9.99935 8.98649C8.54631 8.98649 7.3684 7.8067 7.3684 6.35135ZM9.99935 2.5C7.87568 2.5 6.15411 4.22431 6.15411 6.35135C6.15411 7.98133 7.16508 9.37481 8.59324 9.93708C5.35481 10.5903 2.91602 13.4559 2.91602 16.8919C2.91602 17.2277 3.18784 17.5 3.52316 17.5C3.85847 17.5 4.1303 17.2277 4.1303 16.8919C4.1303 13.6454 6.75796 11.0135 9.99935 11.0135C13.2407 11.0135 15.8684 13.6454 15.8684 16.8919C15.8684 17.2277 16.1402 17.5 16.4755 17.5C16.8109 17.5 17.0827 17.2277 17.0827 16.8919C17.0827 13.4559 14.6439 10.5903 11.4055 9.93708C12.8336 9.37481 13.8446 7.98133 13.8446 6.35135C13.8446 4.22431 12.123 2.5 9.99935 2.5Z" fill="currentColor"/>
</svg>