<svg xmlns="http://www.w3.org/2000/svg" viewBox="0 0 20 20" fill="none">
  <mask id="mask0_635_13456" style="mask-type:alpha" maskUnits="userSpaceOnUse" x="0" y="0" width="20" height="20">
    <rect width="20" height="20" fill="#D9D9D9"/>
  </mask>
  <g mask="url(#mask0_635_13456)">
    <path d="M7.18732 17.0833C5.99929 17.0833 4.99048 16.6685 4.1609 15.8389C3.3313 15.0093 2.9165 14.0005 2.9165 12.8125C2.9165 12.2409 3.02521 11.6944 3.24263 11.1731C3.46005 10.6517 3.76961 10.1902 4.17132 9.78848L9.78829 4.1715C10.19 3.76979 10.6515 3.46023 11.1729 3.24281C11.6943 3.0254 12.2407 2.91669 12.8123 2.91669C14.0003 2.91669 15.0091 3.33149 15.8387 4.16108C16.6683 4.99067 17.0831 5.99947 17.0831 7.1875C17.0831 7.75908 16.9744 8.30556 16.757 8.82692C16.5396 9.34828 16.23 9.80981 15.8283 10.2115L10.2113 15.8285C9.80963 16.2302 9.34809 16.5398 8.82673 16.7572C8.30537 16.9746 7.7589 17.0833 7.18732 17.0833ZM12.5847 11.6859L14.9581 9.33333C15.2359 9.05556 15.4512 8.72917 15.604 8.35417C15.7568 7.97917 15.8331 7.59028 15.8331 7.1875C15.8331 6.35417 15.538 5.64236 14.9477 5.05208C14.3575 4.46181 13.6456 4.16667 12.8123 4.16667C12.4095 4.16667 12.0206 4.24306 11.6456 4.39583C11.2706 4.54861 10.9443 4.76389 10.6665 5.04167L8.3139 7.41508L12.5847 11.6859ZM7.18732 15.8333C7.59009 15.8333 7.97898 15.7569 8.35398 15.6042C8.72898 15.4514 9.05537 15.2361 9.33315 14.9583L11.6857 12.5849L7.4149 8.31408L5.04148 10.6667C4.76371 10.9444 4.54843 11.2708 4.39565 11.6458C4.24287 12.0208 4.16648 12.4097 4.16648 12.8125C4.16648 13.6458 4.46162 14.3576 5.0519 14.9479C5.64218 15.5382 6.35398 15.8333 7.18732 15.8333Z" fill="currentColor"/>
  </g>
</svg>