<svg viewBox="0 0 20 20" fill="none" xmlns="http://www.w3.org/2000/svg">
<path fill-rule="evenodd" clip-rule="evenodd" d="M13.75 8.75C13.75 11.5114 11.5114 13.75 8.75 13.75C5.98858 13.75 3.75 11.5114 3.75 8.75C3.75 5.98858 5.98858 3.75 8.75 3.75C11.5114 3.75 13.75 5.98858 13.75 8.75ZM12.7055 13.5893C11.628 14.471 10.2508 15 8.75 15C5.29822 15 2.5 12.2018 2.5 8.75C2.5 5.29822 5.29822 2.5 8.75 2.5C12.2018 2.5 15 5.29822 15 8.75C15 10.2508 14.471 11.628 13.5893 12.7055L16.6919 15.8081C16.936 16.0521 16.936 16.4479 16.6919 16.6919C16.4479 16.936 16.0521 16.936 15.8081 16.6919L12.7055 13.5893Z" fill="currentColor"/>
</svg>
