<svg viewBox="0 0 25 24" fill="none" xmlns="http://www.w3.org/2000/svg">
<g clip-path="url(#clip0_4878_38790)">
<path fill-rule="evenodd" clip-rule="evenodd" d="M3.75084 9.87774C3.75028 9.91842 3.75 9.95918 3.75 10V14C3.75 14.0408 3.75028 14.0816 3.75084 14.1223C2.87651 13.8136 2.25 12.98 2.25 12C2.25 11.02 2.87651 10.1864 3.75084 9.87774ZM3.91598 8.29521C2.12229 8.5757 0.75 10.1276 0.75 12C0.75 13.8724 2.12229 15.4243 3.91598 15.7048C4.70914 19.7212 8.25087 22.75 12.5 22.75C16.7491 22.75 20.2909 19.7212 21.084 15.7048C22.8777 15.4243 24.25 13.8724 24.25 12C24.25 10.1276 22.8777 8.5757 21.084 8.29521C20.2909 4.27879 16.7491 1.25 12.5 1.25C8.25087 1.25 4.70914 4.27879 3.91598 8.29521ZM22.75 12C22.75 12.98 22.1235 13.8136 21.2492 14.1223C21.2497 14.0816 21.25 14.0408 21.25 14V10C21.25 9.95918 21.2497 9.91842 21.2492 9.87774C22.1235 10.1864 22.75 11.02 22.75 12ZM5.25 10C5.25 8.78071 5.55099 7.63173 6.08272 6.62329C6.20201 6.70331 6.34555 6.75 6.5 6.75C7.36476 6.75 8.75047 6.64537 10.1468 6.33177C11.5187 6.02369 13.0259 5.48724 14.0172 4.5431C14.3172 4.25744 14.3288 3.78271 14.0431 3.48276C13.7574 3.18281 13.2827 3.17123 12.9828 3.4569C12.2941 4.11276 11.118 4.57631 9.81816 4.86823C8.80509 5.09574 7.79267 5.2027 7.03387 5.23707C8.36296 3.71304 10.319 2.75 12.5 2.75C14.7401 2.75 16.7429 3.76593 18.0728 5.36216C17.8237 5.30929 17.5683 5.22347 17.3149 5.10772C16.6956 4.82477 16.1778 4.4028 15.8915 4.01052C15.6473 3.67593 15.1781 3.60264 14.8436 3.84681C14.509 4.09099 14.4357 4.56018 14.6799 4.89476C15.1418 5.52778 15.8783 6.10051 16.6916 6.47208C17.3986 6.79508 18.2314 6.9963 19.056 6.90071C19.5011 7.84044 19.75 8.89115 19.75 10V14C19.75 18.0041 16.5041 21.25 12.5 21.25C8.49594 21.25 5.25 18.0041 5.25 14V10ZM9.75 12.5C10.4404 12.5 11 11.9404 11 11.25C11 10.5596 10.4404 10 9.75 10C9.05964 10 8.5 10.5596 8.5 11.25C8.5 11.9404 9.05964 12.5 9.75 12.5ZM16.5 11.25C16.5 11.9404 15.9404 12.5 15.25 12.5C14.5596 12.5 14 11.9404 14 11.25C14 10.5596 14.5596 10 15.25 10C15.9404 10 16.5 10.5596 16.5 11.25ZM9.5 16.25C9.85246 16.25 10.1481 16.4931 10.2285 16.8208C10.296 16.8664 10.4198 16.9303 10.6159 16.9956C11.0636 17.1448 11.7298 17.25 12.5 17.25C13.2702 17.25 13.9364 17.1448 14.3841 16.9956C14.5802 16.9303 14.704 16.8664 14.7715 16.8208C14.8519 16.4931 15.1475 16.25 15.5 16.25C15.9142 16.25 16.25 16.5858 16.25 17C16.25 17.4664 15.9658 17.7913 15.7285 17.9783C15.4827 18.172 15.1736 18.3136 14.8585 18.4186C14.2204 18.6313 13.3866 18.75 12.5 18.75C11.6134 18.75 10.7796 18.6313 10.1415 18.4186C9.82639 18.3136 9.51727 18.172 9.27152 17.9783C9.03424 17.7913 8.75 17.4664 8.75 17C8.75 16.5858 9.08579 16.25 9.5 16.25ZM14.8174 16.7855C14.8196 16.7834 14.8205 16.7824 14.8204 16.7824L14.8194 16.7834L14.8174 16.7855ZM10.1826 16.7855C10.1804 16.7834 10.1795 16.7824 10.1796 16.7824C10.1796 16.7824 10.1807 16.7834 10.1826 16.7855ZM17.6819 16.7276C18.0837 16.6272 18.3281 16.22 18.2276 15.8181C17.9429 14.6792 17.0889 14.25 16.5 14.25C16.0858 14.25 15.75 14.5858 15.75 15C15.75 15.4075 16.075 15.7391 16.48 15.7497L16.482 15.7504C16.4904 15.7531 16.5203 15.7626 16.5596 15.793C16.6109 15.8328 16.7102 15.9333 16.7724 16.1819C16.8729 16.5838 17.2801 16.8281 17.6819 16.7276ZM6.77239 15.8181C6.67193 16.22 6.91625 16.6272 7.3181 16.7276C7.71994 16.8281 8.12715 16.5838 8.22761 16.1819C8.28975 15.9333 8.38908 15.8328 8.44038 15.793C8.47969 15.7626 8.50958 15.7531 8.518 15.7504C8.51895 15.7501 8.51962 15.7499 8.52001 15.7497C8.92497 15.7391 9.25 15.4075 9.25 15C9.25 14.5858 8.91421 14.25 8.5 14.25C7.91107 14.25 7.05712 14.6792 6.77239 15.8181Z" fill="currentColor"/>
</g>
<defs>
<clipPath id="clip0_4878_38790">
<rect width="24" height="24" fill="white" transform="translate(0.5)"/>
</clipPath>
</defs>
</svg>
