<svg width="20" height="20" viewBox="0 0 20 20" fill="none" xmlns="http://www.w3.org/2000/svg">
    <g id="share">
        <path id="Union" fill-rule="evenodd" clip-rule="evenodd"
            d="M15.4167 5C15.4167 5.69036 14.857 6.25 14.1667 6.25C13.4763 6.25 12.9167 5.69036 12.9167 5C12.9167 4.30964 13.4763 3.75 14.1667 3.75C14.857 3.75 15.4167 4.30964 15.4167 5ZM16.6667 5C16.6667 6.38071 15.5474 7.5 14.1667 7.5C13.4463 7.5 12.7971 7.19533 12.3409 6.70781L7.42488 9.38928C7.47395 9.58474 7.5 9.78933 7.5 10C7.5 10.4097 7.40144 10.7964 7.22674 11.1377C7.31161 10.9719 7.37851 10.7954 7.42487 10.6107L12.3409 13.2922C12.7971 12.8047 13.4463 12.5 14.1667 12.5C15.5474 12.5 16.6667 13.6193 16.6667 15C16.6667 16.3807 15.5474 17.5 14.1667 17.5C12.786 17.5 11.6667 16.3807 11.6667 15C11.6667 14.7893 11.6927 14.5847 11.7418 14.3893L6.82578 11.7078C6.36957 12.1953 5.72036 12.5 5 12.5C3.61929 12.5 2.5 11.3807 2.5 10C2.5 8.61929 3.61929 7.5 5 7.5C6.08852 7.5 7.01455 8.19567 7.35775 9.16667C7.24168 8.83826 7.05893 8.54135 6.82578 8.2922L11.7418 5.61074C11.6927 5.41528 11.6667 5.21068 11.6667 5C11.6667 3.61929 12.786 2.5 14.1667 2.5C15.5474 2.5 16.6667 3.61929 16.6667 5ZM15.4167 15C15.4167 15.6904 14.857 16.25 14.1667 16.25C13.4763 16.25 12.9167 15.6904 12.9167 15C12.9167 14.3096 13.4763 13.75 14.1667 13.75C14.857 13.75 15.4167 14.3096 15.4167 15ZM6.25 10C6.25 10.6904 5.69036 11.25 5 11.25C4.30964 11.25 3.75 10.6904 3.75 10C3.75 9.30964 4.30964 8.75 5 8.75C5.69036 8.75 6.25 9.30964 6.25 10Z"
            fill="currentColor" />
    </g>
</svg>