<svg xmlns="http://www.w3.org/2000/svg" viewBox="0 0 10 10" fill="none">
  <mask id="mask0_12661_81618" style="mask-type:alpha" maskUnits="userSpaceOnUse" x="0" y="0" width="10" height="10">
    <rect width="10" height="10" fill="#D9D9D9"/>
  </mask>
  <g mask="url(#mask0_12661_81618)">
    <path d="M5.0013 8.98975C4.94575 8.98975 4.89366 8.98107 4.84505 8.9637C4.79644 8.94634 4.7513 8.91683 4.70964 8.87516L2.3763 6.54183C2.29991 6.46544 2.26172 6.36822 2.26172 6.25016C2.26172 6.13211 2.29991 6.03488 2.3763 5.9585C2.45964 5.87516 2.55859 5.83523 2.67318 5.8387C2.78776 5.84218 2.88325 5.88211 2.95964 5.9585L4.58464 7.57308V1.25016C4.58464 1.13211 4.62457 1.03315 4.70443 0.953288C4.78429 0.873427 4.88325 0.833496 5.0013 0.833496C5.11936 0.833496 5.21832 0.873427 5.29818 0.953288C5.37804 1.03315 5.41797 1.13211 5.41797 1.25016V7.57308L7.03255 5.9585C7.11589 5.87516 7.21484 5.8335 7.32943 5.8335C7.44401 5.8335 7.54297 5.87516 7.6263 5.9585C7.70269 6.04183 7.74089 6.14079 7.74089 6.25537C7.74089 6.36995 7.70269 6.46544 7.6263 6.54183L5.29297 8.87516C5.2513 8.91683 5.20616 8.94634 5.15755 8.9637C5.10894 8.98107 5.05686 8.98975 5.0013 8.98975Z" fill="currentColor"/>
  </g>
</svg>