<svg xmlns="http://www.w3.org/2000/svg" viewBox="0 0 13 13" fill="none">
  <path fill-rule="evenodd" clip-rule="evenodd" d="M6.86448 1.85146C6.79604 1.71279 6.65482 1.625 6.50018 1.625C6.34555 1.625 6.20432 1.71279 6.13588 1.85146L4.79768 4.56296L1.80536 4.99776C1.65233 5.02 1.5252 5.12719 1.47741 5.27425C1.42963 5.42132 1.46948 5.58276 1.58021 5.6907L3.74547 7.80131L3.23433 10.7815C3.20818 10.9339 3.27084 11.088 3.39594 11.1789C3.52104 11.2698 3.6869 11.2818 3.82377 11.2098L6.50018 9.80272L9.17659 11.2098C9.31346 11.2818 9.47932 11.2698 9.60442 11.1789C9.72953 11.088 9.79218 10.9339 9.76604 10.7815L9.25489 7.80131L11.4201 5.6907C11.5309 5.58276 11.5707 5.42132 11.523 5.27425C11.4752 5.12719 11.348 5.02 11.195 4.99776L8.20269 4.56296L6.86448 1.85146Z" fill="currentColor"/>
</svg>