<svg  viewBox="0 0 12 13" fill="none" xmlns="http://www.w3.org/2000/svg">
<path fill-rule="evenodd" clip-rule="evenodd" d="M10.25 6.5C10.25 8.84721 8.34721 10.75 6 10.75C3.65279 10.75 1.75 8.84721 1.75 6.5C1.75 4.15279 3.65279 2.25 6 2.25C8.34721 2.25 10.25 4.15279 10.25 6.5ZM11 6.5C11 9.26142 8.76142 11.5 6 11.5C3.23858 11.5 1 9.26142 1 6.5C1 3.73858 3.23858 1.5 6 1.5C8.76142 1.5 11 3.73858 11 6.5ZM6.375 3.25C6.375 3.04289 6.20711 2.875 6 2.875C5.79289 2.875 5.625 3.04289 5.625 3.25V6.5C5.625 6.59946 5.66451 6.69484 5.73484 6.76517L7.23483 8.26516C7.38128 8.41161 7.61872 8.41161 7.76517 8.26516C7.91161 8.11872 7.91161 7.88128 7.76517 7.73484L6.375 6.34467V3.25Z" fill="currentColor"/>
</svg>
