<svg viewBox="0 0 24 24" fill="none" xmlns="http://www.w3.org/2000/svg">
  <path fill-rule="evenodd" clip-rule="evenodd"
    d="M15 5.25C15.4142 5.25 15.75 4.91421 15.75 4.5C15.75 4.08579 15.4142 3.75 15 3.75H9C8.58579 3.75 8.25 4.08579 8.25 4.5C8.25 4.91421 8.58579 5.25 9 5.25H15ZM6 6.45001C5.58579 6.45001 5.25 6.7858 5.25 7.20001C5.25 7.61423 5.58579 7.95001 6 7.95001V19.5C6 20.0523 6.44772 20.5 7 20.5H17C17.5523 20.5 18 20.0523 18 19.5V7.95001C18.4142 7.95001 18.75 7.61423 18.75 7.20001C18.75 6.7858 18.4142 6.45001 18 6.45001H6ZM7.5 19V8H16.5V19H7.5ZM10 9.75C10.4142 9.75 10.75 10.0858 10.75 10.5V17.5C10.75 17.9142 10.4142 18.25 10 18.25C9.58579 18.25 9.25 17.9142 9.25 17.5V10.5C9.25 10.0858 9.58579 9.75 10 9.75ZM14 9.75C14.4142 9.75 14.75 10.0858 14.75 10.5V17.5C14.75 17.9142 14.4142 18.25 14 18.25C13.5858 18.25 13.25 17.9142 13.25 17.5V10.5C13.25 10.0858 13.5858 9.75 14 9.75Z"
    fill="currentColor" />
</svg>
  