<svg viewBox="0 0 20 20" fill="none" xmlns="http://www.w3.org/2000/svg">
<g id="view">
<path id="Union" fill-rule="evenodd" clip-rule="evenodd" d="M1.95907 10.7296C1.94818 10.7108 1.9383 10.6914 1.92946 10.6716C1.89254 10.5892 1.87492 10.5024 1.875 10.4166C1.87492 10.3308 1.89254 10.244 1.92946 10.1616C1.9383 10.1418 1.94818 10.1224 1.95907 10.1035L1.96269 10.097C1.96893 10.0859 1.97766 10.0706 1.98887 10.0513C2.01129 10.0127 2.04367 9.95816 2.08598 9.89001C2.17055 9.75378 2.29507 9.56262 2.45935 9.33484C2.78723 8.88021 3.27715 8.27458 3.92811 7.66775C5.22747 6.45648 7.20578 5.20825 9.83345 5.20825C12.4611 5.20825 14.4394 6.45648 15.7388 7.66775C16.3898 8.27458 16.8797 8.88021 17.2076 9.33484C17.3718 9.56262 17.4964 9.75378 17.5809 9.89001C17.6232 9.95816 17.6556 10.0127 17.678 10.0513C17.6892 10.0706 17.698 10.0859 17.7042 10.097L17.7079 10.1036C17.7187 10.1224 17.7286 10.1418 17.7374 10.1616C17.7744 10.244 17.792 10.3308 17.7919 10.4166C17.792 10.5024 17.7744 10.5892 17.7374 10.6716C17.7286 10.6914 17.7187 10.7108 17.7079 10.7296L17.7042 10.7361C17.698 10.7472 17.6892 10.7626 17.678 10.7819C17.6556 10.8205 17.6232 10.875 17.5809 10.9432C17.4964 11.0794 17.3718 11.2706 17.2076 11.4983C16.8797 11.953 16.3898 12.5586 15.7388 13.1654C14.4394 14.3767 12.4611 15.6249 9.83345 15.6249C7.20578 15.6249 5.22747 14.3767 3.92811 13.1654C3.27715 12.5586 2.78723 11.953 2.45935 11.4983C2.29507 11.2706 2.17055 11.0794 2.08598 10.9432C2.04367 10.875 2.01129 10.8205 1.98887 10.7819C1.97766 10.7626 1.96893 10.7472 1.96269 10.7361L1.95907 10.7296ZM3.47318 10.7671C3.37657 10.6332 3.29628 10.5146 3.23243 10.4166C3.29628 10.3185 3.37657 10.2 3.47318 10.066C3.76509 9.66129 4.20225 9.12109 4.78046 8.58209C5.93943 7.50169 7.62779 6.45825 9.83345 6.45825C12.0391 6.45825 13.7275 7.50169 14.8864 8.58209C15.4647 9.12109 15.9018 9.66129 16.1937 10.066C16.2903 10.2 16.3706 10.3185 16.4345 10.4166C16.3706 10.5146 16.2903 10.6332 16.1937 10.7671C15.9018 11.1719 15.4647 11.7121 14.8864 12.2511C13.7275 13.3315 12.0391 14.3749 9.83345 14.3749C7.62779 14.3749 5.93943 13.3315 4.78046 12.2511C4.20225 11.7121 3.76509 11.1719 3.47318 10.7671ZM11.3335 10.4165C11.3335 11.245 10.662 11.9165 9.83354 11.9165C9.00511 11.9165 8.33354 11.245 8.33354 10.4165C8.33354 9.58812 9.00511 8.91654 9.83354 8.91654C10.662 8.91654 11.3335 9.58812 11.3335 10.4165ZM12.5835 10.4165C12.5835 11.9353 11.3523 13.1665 9.83354 13.1665C8.31475 13.1665 7.08354 11.9353 7.08354 10.4165C7.08354 8.89776 8.31475 7.66654 9.83354 7.66654C11.3523 7.66654 12.5835 8.89776 12.5835 10.4165Z" fill="currentColor"/>
</g>
</svg>
