<svg viewBox="0 0 20 20" fill="none" xmlns="http://www.w3.org/2000/svg">
    <path fill-rule="evenodd" clip-rule="evenodd"
        d="M10.6246 3.33337C10.6246 2.9882 10.3448 2.70837 9.99958 2.70837C9.6544 2.70837 9.37458 2.9882 9.37458 3.33337L9.37458 9.37495H3.33301C2.98783 9.37495 2.70801 9.65477 2.70801 9.99995C2.70801 10.3451 2.98783 10.6249 3.33301 10.6249H9.37458L9.37458 16.6668C9.37458 17.012 9.6544 17.2918 9.99958 17.2918C10.3448 17.2918 10.6246 17.012 10.6246 16.6668L10.6246 10.6249H16.6665C17.0116 10.6249 17.2915 10.3451 17.2915 9.99995C17.2915 9.65477 17.0116 9.37495 16.6665 9.37495H10.6246L10.6246 3.33337Z"
        fill="currentColor" />
</svg>