<svg viewBox="0 0 20 20" fill="none" xmlns="http://www.w3.org/2000/svg">
<g id="calendar_month">
<mask id="mask0_5209_57111" style="mask-type:alpha" maskUnits="userSpaceOnUse" x="0" y="0">
<rect id="Bounding box" width="20" height="20" fill="currentColor"/>
</mask>
<g mask="url(#mask0_5209_57111)">
<path id="calendar_month_2" d="M4.4231 17.9167C4.00216 17.9167 3.64585 17.7709 3.35419 17.4792C3.06252 17.1876 2.91669 16.8313 2.91669 16.4103V5.25653C2.91669 4.83559 3.06252 4.47928 3.35419 4.18762C3.64585 3.89595 4.00216 3.75012 4.4231 3.75012H5.57696V2.6283C5.57696 2.44562 5.63812 2.29312 5.76046 2.17078C5.88278 2.04846 6.03528 1.9873 6.21798 1.9873C6.40066 1.9873 6.55317 2.04846 6.6755 2.17078C6.79782 2.29312 6.85898 2.44562 6.85898 2.6283V3.75012H13.1731V2.61228C13.1731 2.43494 13.2329 2.28644 13.3525 2.16678C13.4722 2.04713 13.6207 1.9873 13.798 1.9873C13.9754 1.9873 14.1239 2.04713 14.2435 2.16678C14.3632 2.28644 14.423 2.43494 14.423 2.61228V3.75012H15.5769C15.9978 3.75012 16.3541 3.89595 16.6458 4.18762C16.9375 4.47928 17.0833 4.83559 17.0833 5.25653V16.4103C17.0833 16.8313 16.9375 17.1876 16.6458 17.4792C16.3541 17.7709 15.9978 17.9167 15.5769 17.9167H4.4231ZM4.4231 16.6668H15.5769C15.641 16.6668 15.6998 16.6401 15.7532 16.5866C15.8066 16.5332 15.8333 16.4744 15.8333 16.4103V8.58987H4.16667V16.4103C4.16667 16.4744 4.19337 16.5332 4.24679 16.5866C4.30022 16.6401 4.35899 16.6668 4.4231 16.6668ZM4.16667 7.33989H15.8333V5.25653C15.8333 5.19242 15.8066 5.13365 15.7532 5.08022C15.6998 5.02681 15.641 5.0001 15.5769 5.0001H4.4231C4.35899 5.0001 4.30022 5.02681 4.24679 5.08022C4.19337 5.13365 4.16667 5.19242 4.16667 5.25653V7.33989ZM10 11.7309C9.79594 11.7309 9.62207 11.659 9.47837 11.5153C9.33468 11.3716 9.26283 11.1978 9.26283 10.9937C9.26283 10.7896 9.33468 10.6158 9.47837 10.4721C9.62207 10.3284 9.79594 10.2565 10 10.2565C10.2041 10.2565 10.3779 10.3284 10.5216 10.4721C10.6653 10.6158 10.7372 10.7896 10.7372 10.9937C10.7372 11.1978 10.6653 11.3716 10.5216 11.5153C10.3779 11.659 10.2041 11.7309 10 11.7309ZM6.66667 11.7309C6.46261 11.7309 6.28874 11.659 6.14504 11.5153C6.00135 11.3716 5.9295 11.1978 5.9295 10.9937C5.9295 10.7896 6.00135 10.6158 6.14504 10.4721C6.28874 10.3284 6.46261 10.2565 6.66667 10.2565C6.87072 10.2565 7.0446 10.3284 7.18829 10.4721C7.33199 10.6158 7.40383 10.7896 7.40383 10.9937C7.40383 11.1978 7.33199 11.3716 7.18829 11.5153C7.0446 11.659 6.87072 11.7309 6.66667 11.7309ZM13.3333 11.7309C13.1293 11.7309 12.9554 11.659 12.8117 11.5153C12.668 11.3716 12.5962 11.1978 12.5962 10.9937C12.5962 10.7896 12.668 10.6158 12.8117 10.4721C12.9554 10.3284 13.1293 10.2565 13.3333 10.2565C13.5374 10.2565 13.7113 10.3284 13.855 10.4721C13.9987 10.6158 14.0705 10.7896 14.0705 10.9937C14.0705 11.1978 13.9987 11.3716 13.855 11.5153C13.7113 11.659 13.5374 11.7309 13.3333 11.7309ZM10 15.0001C9.79594 15.0001 9.62207 14.9282 9.47837 14.7846C9.33468 14.6409 9.26283 14.467 9.26283 14.2629C9.26283 14.0589 9.33468 13.885 9.47837 13.7413C9.62207 13.5976 9.79594 13.5257 10 13.5257C10.2041 13.5257 10.3779 13.5976 10.5216 13.7413C10.6653 13.885 10.7372 14.0589 10.7372 14.2629C10.7372 14.467 10.6653 14.6409 10.5216 14.7846C10.3779 14.9282 10.2041 15.0001 10 15.0001ZM6.66667 15.0001C6.46261 15.0001 6.28874 14.9282 6.14504 14.7846C6.00135 14.6409 5.9295 14.467 5.9295 14.2629C5.9295 14.0589 6.00135 13.885 6.14504 13.7413C6.28874 13.5976 6.46261 13.5257 6.66667 13.5257C6.87072 13.5257 7.0446 13.5976 7.18829 13.7413C7.33199 13.885 7.40383 14.0589 7.40383 14.2629C7.40383 14.467 7.33199 14.6409 7.18829 14.7846C7.0446 14.9282 6.87072 15.0001 6.66667 15.0001ZM13.3333 15.0001C13.1293 15.0001 12.9554 14.9282 12.8117 14.7846C12.668 14.6409 12.5962 14.467 12.5962 14.2629C12.5962 14.0589 12.668 13.885 12.8117 13.7413C12.9554 13.5976 13.1293 13.5257 13.3333 13.5257C13.5374 13.5257 13.7113 13.5976 13.855 13.7413C13.9987 13.885 14.0705 14.0589 14.0705 14.2629C14.0705 14.467 13.9987 14.6409 13.855 14.7846C13.7113 14.9282 13.5374 15.0001 13.3333 15.0001Z" fill="currentColor"/>
</g>
</g>
</svg>
