<svg viewBox="0 0 32 32" fill="none" xmlns="http://www.w3.org/2000/svg">
<mask id="mask0_361_12810" style="mask-type:alpha" maskUnits="userSpaceOnUse" x="0" y="0" width="32" height="32">
<rect width="32" height="32" fill="#D9D9D9"/>
</mask>
<g mask="url(#mask0_361_12810)">
<path d="M15.9999 22.8205C17.5298 22.8205 18.8268 22.2885 19.8909 21.2244C20.955 20.1603 21.487 18.8633 21.487 17.3334C21.487 15.8035 20.955 14.5065 19.8909 13.4424C18.8268 12.3783 17.5298 11.8462 15.9999 11.8462C14.47 11.8462 13.173 12.3783 12.1089 13.4424C11.0448 14.5065 10.5128 15.8035 10.5128 17.3334C10.5128 18.8633 11.0448 20.1603 12.1089 21.2244C13.173 22.2885 14.47 22.8205 15.9999 22.8205ZM15.9999 20.8206C15.0153 20.8206 14.1879 20.4855 13.5178 19.8155C12.8477 19.1454 12.5127 18.318 12.5127 17.3334C12.5127 16.3488 12.8477 15.5214 13.5178 14.8513C14.1879 14.1812 15.0153 13.8462 15.9999 13.8462C16.9845 13.8462 17.8119 14.1812 18.482 14.8513C19.152 15.5214 19.4871 16.3488 19.4871 17.3334C19.4871 18.318 19.152 19.1454 18.482 19.8155C17.8119 20.4855 16.9845 20.8206 15.9999 20.8206ZM5.74352 27.3334C5.07001 27.3334 4.49992 27.1 4.03325 26.6334C3.56659 26.1667 3.33325 25.5966 3.33325 24.9231V9.74368C3.33325 9.07017 3.56659 8.50008 4.03325 8.03342C4.49992 7.56675 5.07001 7.33342 5.74352 7.33342H9.81529L11.5589 5.44368C11.7777 5.20266 12.0422 5.01292 12.3525 4.87445C12.6627 4.73598 12.9896 4.66675 13.3332 4.66675H18.6666C19.0101 4.66675 19.337 4.73598 19.6473 4.87445C19.9576 5.01292 20.2221 5.20266 20.4409 5.44368L22.1845 7.33342H26.2563C26.9298 7.33342 27.4999 7.56675 27.9665 8.03342C28.4332 8.50008 28.6665 9.07017 28.6665 9.74368V24.9231C28.6665 25.5966 28.4332 26.1667 27.9665 26.6334C27.4999 27.1 26.9298 27.3334 26.2563 27.3334H5.74352ZM5.74352 25.3334H26.2563C26.3759 25.3334 26.4742 25.2949 26.5512 25.218C26.6281 25.1411 26.6666 25.0427 26.6666 24.9231V9.74368C26.6666 9.62402 26.6281 9.52572 26.5512 9.44878C26.4742 9.37185 26.3759 9.33338 26.2563 9.33338H21.2922L18.8461 6.66672H13.1537L10.7076 9.33338H5.74352C5.62385 9.33338 5.52555 9.37185 5.44862 9.44878C5.37169 9.52572 5.33322 9.62402 5.33322 9.74368V24.9231C5.33322 25.0427 5.37169 25.1411 5.44862 25.218C5.52555 25.2949 5.62385 25.3334 5.74352 25.3334Z" fill="#616161"/>
</g>
</svg>
