<svg  viewBox="0 0 20 20" fill="none" xmlns="http://www.w3.org/2000/svg">
<mask id="mask0_10372_13209" style="mask-type:alpha" maskUnits="userSpaceOnUse" x="0" y="0" width="20" height="20">
<rect width="20" height="20" fill="#D9D9D9"/>
</mask>
<g mask="url(#mask0_10372_13209)">
<path d="M10.0006 10.8781L12.5615 13.439C12.6769 13.5544 12.822 13.6134 12.9966 13.6161C13.1713 13.6187 13.319 13.5597 13.4397 13.439C13.5605 13.3183 13.6208 13.1719 13.6208 12.9999C13.6208 12.8279 13.5605 12.6815 13.4397 12.5608L10.8788 9.9999L13.4397 7.43898C13.5551 7.32361 13.6141 7.17858 13.6168 7.0039C13.6195 6.82923 13.5605 6.68154 13.4397 6.56082C13.319 6.44008 13.1726 6.37971 13.0006 6.37971C12.8286 6.37971 12.6823 6.44008 12.5615 6.56082L10.0006 9.12171L7.43971 6.56082C7.32434 6.44543 7.17931 6.3864 7.00463 6.38373C6.82996 6.38105 6.68227 6.44008 6.56155 6.56082C6.44081 6.68154 6.38044 6.8279 6.38044 6.9999C6.38044 7.1719 6.44081 7.31826 6.56155 7.43898L9.12244 9.9999L6.56155 12.5608C6.44616 12.6762 6.38713 12.8212 6.38446 12.9959C6.38178 13.1706 6.44081 13.3183 6.56155 13.439C6.68227 13.5597 6.82863 13.6201 7.00063 13.6201C7.17263 13.6201 7.31899 13.5597 7.43971 13.439L10.0006 10.8781ZM10.002 17.9165C8.90708 17.9165 7.87789 17.7088 6.91444 17.2932C5.95098 16.8777 5.11292 16.3137 4.40023 15.6013C3.68754 14.889 3.12332 14.0513 2.70759 13.0882C2.29185 12.1252 2.08398 11.0962 2.08398 10.0013C2.08398 8.90635 2.29176 7.87716 2.70732 6.91371C3.12287 5.95025 3.68683 5.11218 4.39919 4.3995C5.11157 3.68681 5.94927 3.12259 6.9123 2.70686C7.87531 2.29112 8.90429 2.08325 9.99923 2.08325C11.0942 2.08325 12.1234 2.29103 13.0868 2.70659C14.0503 3.12214 14.8883 3.6861 15.601 4.39846C16.3137 5.11084 16.8779 5.94854 17.2937 6.91157C17.7094 7.87458 17.9173 8.90356 17.9173 9.9985C17.9173 11.0934 17.7095 12.1226 17.2939 13.0861C16.8784 14.0495 16.3144 14.8876 15.6021 15.6003C14.8897 16.313 14.052 16.8772 13.089 17.2929C12.126 17.7087 11.097 17.9165 10.002 17.9165Z" fill="currentColor"/>
</g>
</svg>
