<svg viewBox="0 0 20 20" fill="currentColor" xmlns="http://www.w3.org/2000/svg">
<path fill-rule="evenodd" clip-rule="evenodd" d="M6.22488 4.34971L3.72486 6.84972C3.48078 7.0938 3.48078 7.48953 3.72486 7.73361L6.22488 10.2336C6.46896 10.4777 6.86468 10.4777 7.10876 10.2336C7.35284 9.98955 7.35284 9.59382 7.10876 9.34974L5.71754 7.95853L15.8334 7.95853C16.1786 7.95853 16.4584 7.6787 16.4584 7.33353C16.4584 6.98835 16.1786 6.70853 15.8334 6.70853L5.63383 6.70853L7.10876 5.23359C7.35284 4.98951 7.35284 4.59378 7.10876 4.34971C6.86468 4.10563 6.46896 4.10563 6.22488 4.34971ZM14.3663 12.5419L12.8913 11.067C12.6472 10.8229 12.6472 10.4272 12.8913 10.1831C13.1354 9.93901 13.5311 9.93901 13.7752 10.1831L16.2752 12.6831C16.5193 12.9272 16.5193 13.3229 16.2752 13.567L13.7752 16.067C13.5311 16.3111 13.1354 16.3111 12.8913 16.067C12.6472 15.8229 12.6472 15.4272 12.8913 15.1831L14.2825 13.7919L4.16671 13.7919C3.82153 13.7919 3.54171 13.5121 3.54171 13.1669C3.54171 12.8217 3.82153 12.5419 4.16671 12.5419L14.3663 12.5419Z" fill="currentColor"/>
</svg>
