<svg viewBox="0 0 22 22" fill="none"
    xmlns="http://www.w3.org/2000/svg">
    <rect width="22" height="22" rx="11" fill="currentColor"/>
    <path fill-rule="evenodd" clip-rule="evenodd" d="M15.4965 7.32931C15.7243 7.1015 15.7243 6.73216 15.4965 6.50435C15.2687 6.27654 14.8993 6.27654 14.6715 6.50435L11.0007 10.1752L7.3298 6.50435C7.10199 6.27654 6.73264 6.27654 6.50484 6.50435C6.27703 6.73216 6.27703 7.1015 6.50484 7.32931L10.1757 11.0002L6.50484 14.671C6.27703 14.8988 6.27703 15.2682 6.50484 15.496C6.73264 15.7238 7.10199 15.7238 7.3298 15.496L11.0007 11.8251L14.6715 15.496C14.8993 15.7238 15.2687 15.7238 15.4965 15.496C15.7243 15.2682 15.7243 14.8988 15.4965 14.671L11.8256 11.0002L15.4965 7.32931Z" fill="#F5F5F5"/>
</svg>
