<svg xmlns="http://www.w3.org/2000/svg" viewBox="0 0 18 18" fill="none">
  <path fill-rule="evenodd" clip-rule="evenodd" d="M8.99984 16.0834C12.9119 16.0834 16.0832 12.912 16.0832 9.00002C16.0832 5.088 12.9119 1.91669 8.99984 1.91669C5.08782 1.91669 1.9165 5.088 1.9165 9.00002C1.9165 12.912 5.08782 16.0834 8.99984 16.0834ZM8.99984 17.3334C13.6022 17.3334 17.3332 13.6024 17.3332 9.00002C17.3332 4.39765 13.6022 0.666687 8.99984 0.666687C4.39746 0.666687 0.666504 4.39765 0.666504 9.00002C0.666504 13.6024 4.39746 17.3334 8.99984 17.3334Z" fill="currentColor"/>
  <path fill-rule="evenodd" clip-rule="evenodd" d="M9 2.95837C9.34518 2.95837 9.625 3.2382 9.625 3.58337V8.74116L11.9419 11.0581C12.186 11.3022 12.186 11.6979 11.9419 11.942C11.6979 12.1861 11.3021 12.1861 11.0581 11.942L8.55806 9.44198C8.44085 9.32477 8.375 9.1658 8.375 9.00004V3.58337C8.375 3.2382 8.65482 2.95837 9 2.95837Z" fill="#616161"/>
</svg>