<svg viewBox="0 0 25 24" fill="none" xmlns="http://www.w3.org/2000/svg">
<mask id="mask0_636_6390" style="mask-type:alpha" maskUnits="userSpaceOnUse" x="0" y="0" width="25" height="24">
<rect x="0.6875" width="24" height="24" fill="currentColor"/>
</mask>
<g mask="url(#mask0_636_6390)">
<path fill-rule="evenodd" clip-rule="evenodd" d="M4.9952 19.5C4.49007 19.5 4.0625 19.325 3.7125 18.975C3.3625 18.625 3.1875 18.1974 3.1875 17.6922V6.3077C3.1875 5.80257 3.3625 5.375 3.7125 5.025C4.0625 4.675 4.48949 4.5 4.99348 4.5H9.73545C9.9798 4.5 10.2127 4.5468 10.4342 4.6404C10.6556 4.73398 10.8484 4.86283 11.0125 5.02693L12.4855 6.5H20.3797C20.8849 6.5 21.3125 6.675 21.6625 7.025C22.0125 7.375 22.1875 7.80257 22.1875 8.3077V17.6922C22.1875 18.1974 22.0125 18.625 21.6625 18.975C21.3125 19.325 20.8849 19.5 20.3797 19.5H4.9952ZM17.503 16.3392H19.1429V16.3337C19.1593 15.4652 19.1101 14.4602 18.64 13.5644C18.1972 12.7287 17.5084 12.1278 16.6338 11.811C16.3277 11.0026 15.781 10.3253 15.0868 9.88831C14.5675 9.56058 13.9279 9.38579 13.1954 9.37487C12.4957 9.36394 11.7905 9.5005 11.375 9.62067L11.4734 11.2648C12.4246 10.9971 13.3922 10.8988 14.1356 11.232C14.2887 11.303 14.5128 11.4505 14.6003 11.5925C13.5944 11.7127 12.8018 12.1988 12.3754 12.9799C11.9709 13.7173 11.9709 14.5749 12.3863 15.2631C12.7909 15.9459 13.5234 16.3446 14.3488 16.3392C15.3328 16.3337 16.2621 15.6455 16.6611 14.6295C16.754 14.3837 16.8251 14.1324 16.8634 13.8702C16.9891 14.0068 17.0984 14.1597 17.1914 14.3345C17.492 14.9026 17.5139 15.6837 17.503 16.3392ZM13.8076 13.7665C14.07 13.2803 14.6932 13.1984 15.1032 13.1984L15.0977 13.2039H15.2617C15.2726 13.4879 15.2344 13.7719 15.1305 14.0287C14.9829 14.411 14.6385 14.7005 14.3324 14.7005H14.3269C14.0044 14.7005 13.8513 14.5257 13.7912 14.4219C13.6764 14.2362 13.6819 13.9959 13.8076 13.7665Z" fill="white"/>
</g>
</svg>
