<svg viewBox="0 0 14 10" fill="none" xmlns="http://www.w3.org/2000/svg">
<path d="M1.87176 9.99998C1.535 9.99998 1.24996 9.88332 1.01663 9.64998C0.783293 9.41665 0.666626 9.1316 0.666626 8.79485V1.20515C0.666626 0.868394 0.783293 0.583349 1.01663 0.350015C1.24996 0.116682 1.535 1.52588e-05 1.87176 1.52588e-05H5.03328C5.19395 1.52588e-05 5.34844 0.0312157 5.49673 0.0936157C5.64502 0.156005 5.77386 0.241899 5.88326 0.351299L6.86531 1.33335H12.1281C12.4649 1.33335 12.7499 1.45002 12.9833 1.68335C13.2166 1.91668 13.3333 2.20173 13.3333 2.53848V8.79485C13.3333 9.1316 13.2166 9.41665 12.9833 9.64998C12.7499 9.88332 12.4649 9.99998 12.1281 9.99998H1.87176ZM1.87176 9H12.1281C12.188 9 12.2371 8.98077 12.2756 8.9423C12.314 8.90383 12.3333 8.85468 12.3333 8.79485V2.53848C12.3333 2.47865 12.314 2.4295 12.2756 2.39103C12.2371 2.35257 12.188 2.33333 12.1281 2.33333H6.45636L5.18071 1.0577C5.15934 1.03633 5.13691 1.02137 5.11341 1.01282C5.0899 1.00427 5.06532 0.999999 5.03968 0.999999H1.87176C1.81193 0.999999 1.76278 1.01923 1.72431 1.0577C1.68584 1.09617 1.66661 1.14532 1.66661 1.20515V8.79485C1.66661 8.85468 1.68584 8.90383 1.72431 8.9423C1.76278 8.98077 1.81193 9 1.87176 9Z" fill="#616161"/>
<g clip-path="url(#clip0_196_4052)">
<g clip-path="url(#clip1_196_4052)">
<path d="M11.3036 7.89284H10.2103C10.2176 7.45587 10.203 6.93514 10.0026 6.55643C9.9406 6.4399 9.86771 6.33794 9.78389 6.2469C9.75838 6.42169 9.71101 6.5892 9.64905 6.75306C9.38302 7.43038 8.76348 7.8892 8.10751 7.89284C7.55722 7.89648 7.06888 7.63066 6.7992 7.17547C6.52223 6.71665 6.52223 6.14494 6.79191 5.65334C7.07617 5.13262 7.60459 4.80853 8.27515 4.72841C8.21684 4.63374 8.06742 4.53542 7.96538 4.48808C7.46975 4.26595 6.82471 4.3315 6.1906 4.50993L6.125 3.41385C6.40197 3.33374 6.87208 3.2427 7.33856 3.24998C7.82689 3.25727 8.25328 3.37379 8.59949 3.59228C9.06232 3.8836 9.42675 4.33514 9.63083 4.87407C10.2139 5.08528 10.6731 5.48584 10.9683 6.04298C11.2817 6.64018 11.3145 7.31021 11.3036 7.8892V7.89284ZM8.61042 5.799C8.3371 5.799 7.92165 5.85362 7.74672 6.17771C7.6629 6.33066 7.65926 6.49088 7.73579 6.61469C7.77587 6.68388 7.87792 6.8004 8.09293 6.8004C8.09293 6.8004 8.09293 6.8004 8.09657 6.8004C8.30066 6.8004 8.53025 6.60741 8.62864 6.3525C8.69789 6.18136 8.7234 5.992 8.71611 5.80264C8.6906 5.80264 8.63958 5.80264 8.60678 5.80264L8.61042 5.799Z" fill="#616161"/>
</g>
</g>
<defs>
<clipPath id="clip0_196_4052">
<rect width="5.71429" height="5.71429" fill="white" transform="translate(5.85718 2.71428)"/>
</clipPath>
<clipPath id="clip1_196_4052">
<rect width="5.17857" height="4.64286" fill="white" transform="translate(6.125 3.25)"/>
</clipPath>
</defs>
</svg>
