<svg xmlns="http://www.w3.org/2000/svg" viewBox="0 0 20 20" fill="none">
  <path fill-rule="evenodd" clip-rule="evenodd" d="M1.875 5.00008C1.875 4.19467 2.52792 3.54175 3.33333 3.54175H16.6667C17.4721 3.54175 18.125 4.19467 18.125 5.00008V7.50008C18.125 7.84526 17.8452 8.12508 17.5 8.12508C16.4645 8.12508 15.625 8.96455 15.625 10.0001C15.625 11.0356 16.4645 11.8751 17.5 11.8751C17.8452 11.8751 18.125 12.1549 18.125 12.5001V15.0001C18.125 15.8055 17.4721 16.4584 16.6667 16.4584H3.33333C2.52792 16.4584 1.875 15.8055 1.875 15.0001V12.5001C1.875 12.1549 2.15482 11.8751 2.5 11.8751C3.53553 11.8751 4.375 11.0356 4.375 10.0001C4.375 8.96455 3.53553 8.12508 2.5 8.12508C2.15482 8.12508 1.875 7.84526 1.875 7.50008V5.00008ZM3.33333 4.79175C3.21827 4.79175 3.125 4.88502 3.125 5.00008V6.93759C4.5514 7.22714 5.625 8.48823 5.625 10.0001C5.625 11.5119 4.5514 12.773 3.125 13.0626V15.0001C3.125 15.1151 3.21827 15.2084 3.33333 15.2084H16.6667C16.7817 15.2084 16.875 15.1151 16.875 15.0001V13.0626C15.4486 12.773 14.375 11.5119 14.375 10.0001C14.375 8.48823 15.4486 7.22714 16.875 6.93759V5.00008C16.875 4.88502 16.7817 4.79175 16.6667 4.79175H3.33333Z" fill="currentColor"/>
  <path fill-rule="evenodd" clip-rule="evenodd" d="M11.666 4.375C12.0112 4.375 12.291 4.65482 12.291 5L12.291 6.25C12.291 6.59518 12.0112 6.875 11.666 6.875C11.3208 6.875 11.041 6.59518 11.041 6.25L11.041 5C11.041 4.65482 11.3208 4.375 11.666 4.375ZM11.666 8.125C12.0112 8.125 12.291 8.40482 12.291 8.75L12.291 11.25C12.291 11.5952 12.0112 11.875 11.666 11.875C11.3208 11.875 11.041 11.5952 11.041 11.25L11.041 8.75C11.041 8.40482 11.3208 8.125 11.666 8.125ZM11.666 13.125C12.0112 13.125 12.291 13.4048 12.291 13.75L12.291 15C12.291 15.3452 12.0112 15.625 11.666 15.625C11.3208 15.625 11.041 15.3452 11.041 15L11.041 13.75C11.041 13.4048 11.3208 13.125 11.666 13.125Z" fill="currentColor"/>
</svg>