<svg viewBox="0 0 16 17" fill="none" xmlns="http://www.w3.org/2000/svg">
<path d="M6.90022 1.91267C7.56409 1.46219 8.43558 1.46219 9.09945 1.91267C9.46412 2.16012 9.90159 2.27734 10.3411 2.24538C11.1413 2.18718 11.896 2.62293 12.2457 3.34499C12.4378 3.74162 12.758 4.06187 13.1547 4.25396C13.8767 4.60365 14.3125 5.35838 14.2543 6.15855C14.2223 6.59809 14.3396 7.03555 14.587 7.40022C15.0375 8.06409 15.0375 8.93558 14.587 9.59946C14.3396 9.96412 14.2223 10.4016 14.2543 10.8411C14.3125 11.6413 13.8767 12.396 13.1547 12.7457C12.758 12.9378 12.4378 13.258 12.2457 13.6547C11.896 14.3767 11.1413 14.8125 10.3411 14.7543C9.90159 14.7223 9.46412 14.8396 9.09946 15.087C8.43558 15.5375 7.56409 15.5375 6.90022 15.087C6.53555 14.8396 6.09809 14.7223 5.65855 14.7543C4.85838 14.8125 4.10365 14.3767 3.75396 13.6547C3.56187 13.258 3.24162 12.9378 2.84499 12.7457C2.12293 12.396 1.68718 11.6413 1.74538 10.8411C1.77734 10.4016 1.66012 9.96412 1.41267 9.59946C0.962188 8.93558 0.962188 8.06409 1.41267 7.40022C1.66012 7.03555 1.77734 6.59809 1.74538 6.15855C1.68718 5.35838 2.12293 4.60365 2.84499 4.25396C3.24162 4.06187 3.56187 3.74162 3.75396 3.34499C4.10365 2.62293 4.85838 2.18718 5.65855 2.24538C6.09809 2.27734 6.53555 2.16012 6.90022 1.91267Z" fill="currentColor"/>
<path fill-rule="evenodd" clip-rule="evenodd" d="M5.09409 11.2508C4.85794 11.0147 4.84741 10.6423 5.07056 10.4192L9.9193 5.57045C10.1425 5.34729 10.5148 5.35782 10.7509 5.59397C10.9871 5.83012 10.9976 6.20246 10.7745 6.42562L5.92574 11.2744C5.70258 11.4975 5.33024 11.487 5.09409 11.2508Z" fill="white"/>
<circle cx="9.99984" cy="10.4998" r="1.33333" fill="white"/>
<circle cx="5.99984" cy="6.49984" r="1.33333" fill="white"/>
</svg>
