<svg  viewBox="0 0 16 16" fill="none" xmlns="http://www.w3.org/2000/svg">
<path fill-rule="evenodd" clip-rule="evenodd" d="M8.94281 9.33311C8.42211 9.85381 7.57789 9.85381 7.05719 9.33311L2.19526 4.47118C1.93491 4.21083 1.93491 3.78872 2.19526 3.52837C2.45561 3.26802 2.87772 3.26802 3.13807 3.52837L8 8.3903L12.8619 3.52837C13.1223 3.26802 13.5444 3.26802 13.8047 3.52837C14.0651 3.78872 14.0651 4.21083 13.8047 4.47118L8.94281 9.33311Z" fill="currentColor"/>
<path fill-rule="evenodd" clip-rule="evenodd" d="M8.94281 13.3331C8.42211 13.8538 7.57789 13.8538 7.05719 13.3331L2.19526 8.47118C1.93491 8.21083 1.93491 7.78872 2.19526 7.52837C2.45561 7.26802 2.87772 7.26802 3.13807 7.52837L8 12.3903L12.8619 7.52837C13.1223 7.26802 13.5444 7.26802 13.8047 7.52837C14.0651 7.78872 14.0651 8.21083 13.8047 8.47118L8.94281 13.3331Z" fill="currentColor"/>
</svg>
