<svg xmlns="http://www.w3.org/2000/svg" viewBox="0 0 33 32" fill="none">
  <path fill-rule="evenodd" clip-rule="evenodd" d="M16.4974 4.33337C17.0497 4.33337 17.4974 4.78109 17.4974 5.33337L17.4974 19.1983L23.8572 13.8985C24.2815 13.5449 24.9121 13.6022 25.2656 14.0265C25.6192 14.4508 25.5619 15.0814 25.1376 15.4349L17.9912 21.3903C17.1258 22.1114 15.8689 22.1114 15.0036 21.3903L7.85721 15.4349C7.43293 15.0814 7.37561 14.4508 7.72917 14.0265C8.08273 13.6022 8.7133 13.5449 9.13758 13.8985L15.4974 19.1983V5.33337C15.4974 4.78109 15.9451 4.33337 16.4974 4.33337ZM7.16406 24.3334C6.61178 24.3334 6.16406 24.7811 6.16406 25.3334C6.16406 25.8857 6.61178 26.3334 7.16406 26.3334L25.8307 26.3334C26.383 26.3334 26.8307 25.8857 26.8307 25.3334C26.8307 24.7811 26.383 24.3334 25.8307 24.3334L7.16406 24.3334Z" fill="currentColor"/>
</svg>