<svg  viewBox="0 0 65 64" fill="none" xmlns="http://www.w3.org/2000/svg">
<mask id="mask0_12523_15686" style="mask-type:alpha" maskUnits="userSpaceOnUse" x="0" y="0" width="65" height="64">
<rect x="0.5" width="64" height="64" fill="currentColor"/>
</mask>
<g mask="url(#mask0_12523_15686)">
<path d="M32.5007 37.3333C31.7451 37.3333 31.1118 37.0777 30.6007 36.5666C30.0895 36.0555 29.834 35.4221 29.834 34.6666V15.9999C29.834 15.2444 30.0895 14.611 30.6007 14.0999C31.1118 13.5888 31.7451 13.3333 32.5007 13.3333C33.2562 13.3333 33.8895 13.5888 34.4007 14.0999C34.9118 14.611 35.1673 15.2444 35.1673 15.9999V34.6666C35.1673 35.4221 34.9118 36.0555 34.4007 36.5666C33.8895 37.0777 33.2562 37.3333 32.5007 37.3333ZM32.5007 50.6666C31.7451 50.6666 31.1118 50.411 30.6007 49.8999C30.0895 49.3888 29.834 48.7555 29.834 47.9999C29.834 47.2444 30.0895 46.611 30.6007 46.0999C31.1118 45.5888 31.7451 45.3333 32.5007 45.3333C33.2562 45.3333 33.8895 45.5888 34.4007 46.0999C34.9118 46.611 35.1673 47.2444 35.1673 47.9999C35.1673 48.7555 34.9118 49.3888 34.4007 49.8999C33.8895 50.411 33.2562 50.6666 32.5007 50.6666Z" fill="currentColor"/>
</g>
</svg>
