<svg width="20" height="20" viewBox="0 0 20 20" fill="none" xmlns="http://www.w3.org/2000/svg">
    <g id="&#236;&#132;&#160;&#235;&#172;&#188;&#237;&#149;&#152;&#234;&#184;&#176;">
        <path id="Union (Stroke)" fill-rule="evenodd" clip-rule="evenodd"
            d="M16.6667 9.1665H17.5V4.1665H2.5V9.1665H3.33333V17.4998H16.6667V9.1665ZM15.4167 16.2498V7.9165H16.25V5.4165H3.75V7.9165H4.58333V16.2498H15.4167Z"
            fill="#616161" />
        <path id="Subtract" fill-rule="evenodd" clip-rule="evenodd"
            d="M15.8333 4.1665C15.7825 3.88983 15.6919 3.55895 15.5531 3.23569C15.3252 2.70511 14.8934 2.02432 14.1095 1.76682C13.2833 1.49539 12.3526 1.77928 11.3539 2.56378C10.9374 2.89099 10.4874 3.32078 9.99989 3.87056C9.51239 3.32078 9.06241 2.89099 8.64585 2.56378C7.64713 1.77928 6.71646 1.49539 5.89022 1.76682C5.10641 2.02432 4.67456 2.70511 4.44669 3.23569C4.30786 3.55895 4.21724 3.88983 4.1665 4.1665H5.50213C5.53816 4.0262 5.58836 3.86866 5.65631 3.71043C5.83866 3.28583 6.07343 3.02839 6.31519 2.94896C6.51453 2.88348 6.96839 2.86399 7.8157 3.52956C8.03333 3.70051 8.26883 3.91087 8.52296 4.1665H11.4768C11.7309 3.91087 11.9664 3.70051 12.1841 3.52956C13.0314 2.86399 13.4852 2.88348 13.6846 2.94896C13.9263 3.02839 14.1611 3.28583 14.3435 3.71043C14.4114 3.86866 14.4616 4.0262 14.4976 4.1665H15.8333Z"
            fill="#FF6700" />
        <path id="Line 3 (Stroke)" fill-rule="evenodd" clip-rule="evenodd"
            d="M16.6668 9.1665H3.3335V7.9165H16.6668V9.1665Z" fill="#616161" />
        <path id="Line 2 (Stroke)" fill-rule="evenodd" clip-rule="evenodd"
            d="M9.16683 17.4998V4.1665H10.8335V17.4998H9.16683Z" fill="#FF6700" />
    </g>
</svg>