<svg xmlns="http://www.w3.org/2000/svg" viewBox="0 0 33 33" fill="none">
  <path fill-rule="evenodd" clip-rule="evenodd" d="M11.1667 6.53345C10.2462 6.53345 9.5 7.27964 9.5 8.20011C9.5 9.12059 10.2462 9.86678 11.1667 9.86678C12.0871 9.86678 12.8333 9.12059 12.8333 8.20011C12.8333 7.27964 12.0871 6.53345 11.1667 6.53345ZM7.5 8.20011C7.5 6.17507 9.14162 4.53345 11.1667 4.53345C13.1917 4.53345 14.8333 6.17507 14.8333 8.20011C14.8333 10.2252 13.1917 11.8668 11.1667 11.8668C9.14162 11.8668 7.5 10.2252 7.5 8.20011ZM19.7929 11.493C20.1834 11.1025 20.8166 11.1025 21.2071 11.493L29.2071 19.493C29.3946 19.6805 29.5 19.9349 29.5 20.2001V28.2001C29.5 28.7524 29.0523 29.2001 28.5 29.2001H4.5C3.94772 29.2001 3.5 28.7524 3.5 28.2001V21.5334C3.5 21.2682 3.60536 21.0139 3.79289 20.8263L9.12623 15.493C9.51675 15.1025 10.1499 15.1025 10.5404 15.493L13.1667 18.1192L19.7929 11.493ZM20.5 13.6143L13.8738 20.2406C13.4832 20.6311 12.8501 20.6311 12.4596 20.2406L9.83333 17.6143L5.5 21.9477V27.2001H27.5V20.6143L20.5 13.6143Z" fill="currentColor"/>
</svg>