<svg viewBox="0 0 24 25" fill="none" xmlns="http://www.w3.org/2000/svg">
<path fill-rule="evenodd" clip-rule="evenodd" d="M19.2 1.53398H4.8C2.81178 1.53398 1.2 3.14576 1.2 5.13398V19.534C1.2 21.5222 2.81177 23.134 4.8 23.134H19.2C21.1882 23.134 22.8 21.5222 22.8 19.534V5.13398C22.8 3.14576 21.1882 1.53398 19.2 1.53398ZM4.8 0.333984C2.14903 0.333984 0 2.48302 0 5.13398V19.534C0 22.185 2.14903 24.334 4.8 24.334H19.2C21.851 24.334 24 22.185 24 19.534V5.13398C24 2.48302 21.851 0.333984 19.2 0.333984H4.8Z" fill="currentColor"/>
<g clip-path="url(#clip0_310_8227)">
<path d="M11.9992 5.939C14.0832 5.939 14.3278 5.94829 15.1514 5.98545C15.9132 6.01951 16.325 6.14646 16.6006 6.25484C16.966 6.39728 17.2261 6.56449 17.4986 6.83697C17.771 7.10946 17.9414 7.36957 18.0807 7.73495C18.186 8.01054 18.316 8.42237 18.3501 9.1841C18.3872 10.0078 18.3965 10.2524 18.3965 12.3363C18.3965 14.4202 18.3872 14.6648 18.3501 15.4885C18.316 16.2502 18.1891 16.6621 18.0807 16.9376C17.9383 17.303 17.771 17.5631 17.4986 17.8356C17.2261 18.1081 16.966 18.2784 16.6006 18.4178C16.325 18.523 15.9132 18.6531 15.1514 18.6872C14.3278 18.7243 14.0832 18.7336 11.9992 18.7336C9.9153 18.7336 9.67068 18.7243 8.84702 18.6872C8.08529 18.6531 7.67346 18.5261 7.39787 18.4178C7.03249 18.2753 6.77239 18.1081 6.4999 17.8356C6.22741 17.5631 6.0571 17.303 5.91776 16.9376C5.81248 16.6621 5.68243 16.2502 5.64837 15.4885C5.61121 14.6648 5.60192 14.4202 5.60192 12.3363C5.60192 10.2524 5.61121 10.0078 5.64837 9.1841C5.68243 8.42237 5.80938 8.01054 5.91776 7.73495C6.0602 7.36957 6.22741 7.10946 6.4999 6.83697C6.77239 6.56449 7.03249 6.39418 7.39787 6.25484C7.67346 6.14956 8.08529 6.01951 8.84702 5.98545C9.67068 5.94519 9.9184 5.939 11.9992 5.939ZM11.9992 4.5332C9.88124 4.5332 9.61494 4.54249 8.78199 4.57965C7.95214 4.61681 7.38549 4.74996 6.89005 4.94194C6.37604 5.14011 5.94253 5.4095 5.50903 5.84301C5.07552 6.27651 4.80922 6.71312 4.60795 7.22403C4.41597 7.71947 4.28282 8.28612 4.24567 9.11907C4.20851 9.94892 4.19922 10.2152 4.19922 12.3332C4.19922 14.4512 4.20851 14.7175 4.24567 15.5504C4.28282 16.3803 4.41597 16.9469 4.60795 17.4455C4.80613 17.9595 5.07552 18.393 5.50903 18.8265C5.94253 19.26 6.37913 19.5263 6.89005 19.7276C7.38549 19.9195 7.95214 20.0527 8.78509 20.0899C9.61804 20.127 9.88124 20.1363 12.0023 20.1363C14.1234 20.1363 14.3866 20.127 15.2196 20.0899C16.0494 20.0527 16.6161 19.9195 17.1146 19.7276C17.6286 19.5294 18.0621 19.26 18.4956 18.8265C18.9291 18.393 19.1954 17.9564 19.3967 17.4455C19.5887 16.95 19.7218 16.3834 19.759 15.5504C19.7961 14.7175 19.8054 14.4543 19.8054 12.3332C19.8054 10.2121 19.7961 9.94892 19.759 9.11597C19.7218 8.28612 19.5887 7.71947 19.3967 7.22094C19.1985 6.70692 18.9291 6.27342 18.4956 5.83991C18.0621 5.40641 17.6255 5.14011 17.1146 4.93884C16.6192 4.74686 16.0525 4.61371 15.2196 4.57655C14.3835 4.54249 14.1172 4.5332 11.9992 4.5332Z" fill="currentColor"/>
<path d="M11.999 8.33008C9.78814 8.33008 7.99219 10.1229 7.99219 12.3369C7.99219 14.5509 9.78504 16.3437 11.999 16.3437C14.213 16.3437 16.0058 14.5509 16.0058 12.3369C16.0058 10.1229 14.213 8.33008 11.999 8.33008ZM11.999 14.9348C10.5623 14.9348 9.39798 13.7706 9.39798 12.3338C9.39798 10.897 10.5623 9.73278 11.999 9.73278C13.4358 9.73278 14.6 10.897 14.6 12.3338C14.6 13.7706 13.4358 14.9348 11.999 14.9348Z" fill="currentColor"/>
<path d="M16.1656 9.10269C16.6821 9.10269 17.1007 8.68401 17.1007 8.16755C17.1007 7.6511 16.6821 7.23242 16.1656 7.23242C15.6491 7.23242 15.2305 7.6511 15.2305 8.16755C15.2305 8.68401 15.6491 9.10269 16.1656 9.10269Z" fill="currentColor"/>
</g>
<defs>
<clipPath id="clip0_310_8227">
<rect width="15.6" height="15.6" fill="white" transform="translate(4.19922 4.5332)"/>
</clipPath>
</defs>
</svg>
