<svg xmlns="http://www.w3.org/2000/svg" viewBox="0 0 20 20" fill="none">
  <path fill-rule="evenodd" clip-rule="evenodd"
    d="M10 4.05248C8.12507 2.24273 5.1326 2.26035 3.27943 4.10532C1.40686 5.96961 1.40686 8.99337 3.27943 10.8577L8.97109 16.5242C9.54008 17.0906 10.4599 17.0906 11.0289 16.5242L16.7206 10.8577C18.5931 8.99337 18.5931 5.96961 16.7206 4.10532C14.8674 2.26035 11.8749 2.24273 10 4.05248ZM9.17198 4.99116C7.78865 3.61395 5.54468 3.61395 4.16135 4.99116C2.77955 6.36685 2.77955 8.59613 4.16135 9.97182L9.85301 15.6383C9.9343 15.7192 10.0657 15.7192 10.147 15.6383L15.8386 9.97182C17.2204 8.59613 17.2204 6.36685 15.8386 4.99116C14.4553 3.61395 12.2113 3.61395 10.828 4.99116C10.3701 5.44703 9.62988 5.44703 9.17198 4.99116Z"
    fill="currentColor" />
</svg>