<svg xmlns="http://www.w3.org/2000/svg" viewBox="0 0 24 24" fill="none">
  <path fill-rule="evenodd" clip-rule="evenodd" d="M8.5 6.5H15.5V4.5H8.5V6.5ZM8 3C7.44772 3 7 3.44772 7 4L6 4C4.89543 4 4 4.89543 4 6V20C4 21.1046 4.89543 22 6 22H18C19.1046 22 20 21.1046 20 20V6C20 4.89543 19.1046 4 18 4H17C17 3.44772 16.5523 3 16 3H8ZM6 5.5H7V7C7 7.55228 7.44772 8 8 8H16C16.5523 8 17 7.55228 17 7V5.5H18C18.2761 5.5 18.5 5.72386 18.5 6V20C18.5 20.2761 18.2761 20.5 18 20.5H6C5.72386 20.5 5.5 20.2761 5.5 20V6C5.5 5.72386 5.72386 5.5 6 5.5ZM8 10.25C7.58579 10.25 7.25 10.5858 7.25 11C7.25 11.4142 7.58579 11.75 8 11.75H16C16.4142 11.75 16.75 11.4142 16.75 11C16.75 10.5858 16.4142 10.25 16 10.25H8ZM7.25 14C7.25 13.5858 7.58579 13.25 8 13.25H16C16.4142 13.25 16.75 13.5858 16.75 14C16.75 14.4142 16.4142 14.75 16 14.75H8C7.58579 14.75 7.25 14.4142 7.25 14ZM8 16.25C7.58579 16.25 7.25 16.5858 7.25 17C7.25 17.4142 7.58579 17.75 8 17.75H16C16.4142 17.75 16.75 17.4142 16.75 17C16.75 16.5858 16.4142 16.25 16 16.25H8Z" fill="currentColor"/>
</svg>