
<svg  viewBox="0 0 65 64" fill="none" xmlns="http://www.w3.org/2000/svg">
<mask id="mask0_12523_4061" style="mask-type:alpha" maskUnits="userSpaceOnUse" x="0" y="0" width="65" height="64">
<rect x="0.5" width="64" height="64" fill="currentColor"/>
</mask>
<g mask="url(#mask0_12523_4061)">
<path d="M32.5026 58.6663C28.8582 58.6663 25.4137 57.9663 22.1693 56.5663C18.9248 55.1663 16.0915 53.2552 13.6693 50.833C11.247 48.4108 9.33594 45.5774 7.93594 42.333C6.53594 39.0886 5.83594 35.6441 5.83594 31.9997C5.83594 28.3108 6.53594 24.8552 7.93594 21.633C9.33594 18.4108 11.247 15.5886 13.6693 13.1663C16.0915 10.7441 18.9248 8.83301 22.1693 7.43301C25.4137 6.03301 28.8582 5.33301 32.5026 5.33301C33.2582 5.33301 33.8915 5.58856 34.4026 6.09967C34.9137 6.61079 35.1693 7.24412 35.1693 7.99967C35.1693 8.75523 34.9137 9.38856 34.4026 9.89967C33.8915 10.4108 33.2582 10.6663 32.5026 10.6663C26.5915 10.6663 21.5582 12.7441 17.4026 16.8997C13.247 21.0552 11.1693 26.0886 11.1693 31.9997C11.1693 37.9108 13.247 42.9441 17.4026 47.0997C21.5582 51.2552 26.5915 53.333 32.5026 53.333C38.4137 53.333 43.447 51.2552 47.6026 47.0997C51.7582 42.9441 53.8359 37.9108 53.8359 31.9997C53.8359 31.2441 54.0915 30.6108 54.6026 30.0997C55.1137 29.5886 55.747 29.333 56.5026 29.333C57.2582 29.333 57.8915 29.5886 58.4026 30.0997C58.9137 30.6108 59.1693 31.2441 59.1693 31.9997C59.1693 35.6441 58.4693 39.0886 57.0693 42.333C55.6693 45.5774 53.7582 48.4108 51.3359 50.833C48.9137 53.2552 46.0915 55.1663 42.8693 56.5663C39.647 57.9663 36.1915 58.6663 32.5026 58.6663Z" fill="currentColor"/>
</g>
</svg>
