<svg xmlns="http://www.w3.org/2000/svg" viewBox="0 0 24 17" fill="none">
  <path fill-rule="evenodd" clip-rule="evenodd" d="M5.5 11.75C4.5335 11.75 3.75 12.5335 3.75 13.5C3.75 14.4665 4.5335 15.25 5.5 15.25C6.4665 15.25 7.25 14.4665 7.25 13.5C7.25 12.5335 6.4665 11.75 5.5 11.75ZM2.25 13.5C2.25 11.7051 3.70507 10.25 5.5 10.25C7.29493 10.25 8.75 11.7051 8.75 13.5C8.75 15.2949 7.29493 16.75 5.5 16.75C3.70507 16.75 2.25 15.2949 2.25 13.5Z" fill="currentColor"/>
  <path fill-rule="evenodd" clip-rule="evenodd" d="M15.5 11.75C14.5335 11.75 13.75 12.5335 13.75 13.5C13.75 14.4665 14.5335 15.25 15.5 15.25C16.4665 15.25 17.25 14.4665 17.25 13.5C17.25 12.5335 16.4665 11.75 15.5 11.75ZM12.25 13.5C12.25 11.7051 13.7051 10.25 15.5 10.25C17.2949 10.25 18.75 11.7051 18.75 13.5C18.75 15.2949 17.2949 16.75 15.5 16.75C13.7051 16.75 12.25 15.2949 12.25 13.5Z" fill="currentColor"/>
  <path fill-rule="evenodd" clip-rule="evenodd" d="M2.99998 3.25C2.74774 3.25 2.51239 3.3768 2.37364 3.58746L0.145627 6.97015C0.0649636 7.09262 0.0219727 7.23605 0.0219727 7.38269V13.1167C0.0219727 13.5309 0.357759 13.8667 0.771973 13.8667H2.84164C2.83462 13.7892 2.83103 13.7107 2.83103 13.6314C2.83103 13.1718 2.95154 12.7402 3.16268 12.3667H1.52197V7.6075L3.40406 4.75H6.19914V11.1825C6.85248 11.3943 7.39136 11.8602 7.69914 12.4637V4C7.69914 3.58579 7.36335 3.25 6.94914 3.25H2.99998Z" fill="currentColor"/>
  <path fill-rule="evenodd" clip-rule="evenodd" d="M6.1991 0.76236C6.1991 0.348146 6.53488 0.0123596 6.9491 0.0123596H19.3034C19.7176 0.0123596 20.0534 0.348146 20.0534 0.76236V13.1167C20.0534 13.5309 19.7176 13.8667 19.3034 13.8667H18.2633C18.2703 13.7892 18.2739 13.7108 18.2739 13.6315C18.2739 13.1718 18.1534 12.7402 17.9422 12.3667H18.5534V1.51236H7.6991V12.3667H13.4579C13.2468 12.7402 13.1263 13.1718 13.1263 13.6315C13.1263 13.7108 13.1299 13.7892 13.1369 13.8667H7.96802C7.97504 13.7892 7.97862 13.7108 7.97862 13.6315C7.97862 12.4872 7.23187 11.5173 6.1991 11.1826V0.76236Z" fill="currentColor"/>
</svg>