<svg  viewBox="0 0 50 49" fill="none" xmlns="http://www.w3.org/2000/svg">
<path d="M3.97159 3.27273V12H2.91477V4.38068H2.86364L0.732955 5.79545V4.72159L2.91477 3.27273H3.97159Z" fill="black"/>
<path d="M0.903409 29V28.233L3.78409 25.0795C4.12216 24.7102 4.40057 24.3892 4.61932 24.1165C4.83807 23.8409 5 23.5824 5.10511 23.3409C5.21307 23.0966 5.26705 22.8409 5.26705 22.5739C5.26705 22.267 5.19318 22.0014 5.04545 21.777C4.90057 21.5526 4.7017 21.3793 4.44886 21.2571C4.19602 21.1349 3.91193 21.0739 3.59659 21.0739C3.26136 21.0739 2.96875 21.1435 2.71875 21.2827C2.47159 21.419 2.27983 21.6108 2.14347 21.858C2.00994 22.1051 1.94318 22.3949 1.94318 22.7273H0.9375C0.9375 22.2159 1.0554 21.767 1.29119 21.3807C1.52699 20.9943 1.84801 20.6932 2.25426 20.4773C2.66335 20.2614 3.12216 20.1534 3.63068 20.1534C4.14205 20.1534 4.59517 20.2614 4.99006 20.4773C5.38494 20.6932 5.6946 20.9844 5.91903 21.3509C6.14347 21.7173 6.25568 22.125 6.25568 22.5739C6.25568 22.8949 6.19744 23.2088 6.08097 23.5156C5.96733 23.8196 5.76847 24.1591 5.48438 24.5341C5.20312 24.9062 4.8125 25.3608 4.3125 25.8977L2.35227 27.9943V28.0625H6.40909V29H0.903409Z" fill="black"/>
<path d="M3.85227 46.1193C3.28977 46.1193 2.78835 46.0227 2.34801 45.8295C1.91051 45.6364 1.5625 45.3679 1.30398 45.0241C1.0483 44.6776 0.909091 44.2756 0.886364 43.8182H1.96023C1.98295 44.0994 2.07955 44.3423 2.25 44.5469C2.42045 44.7486 2.64347 44.9048 2.91903 45.0156C3.1946 45.1264 3.5 45.1818 3.83523 45.1818C4.21023 45.1818 4.54261 45.1165 4.83239 44.9858C5.12216 44.8551 5.34943 44.6733 5.5142 44.4403C5.67898 44.2074 5.76136 43.9375 5.76136 43.6307C5.76136 43.3097 5.68182 43.027 5.52273 42.7827C5.36364 42.5355 5.13068 42.3423 4.82386 42.2031C4.51705 42.0639 4.14205 41.9943 3.69886 41.9943H3V41.0568H3.69886C4.04545 41.0568 4.34943 40.9943 4.6108 40.8693C4.875 40.7443 5.08097 40.5682 5.22869 40.3409C5.37926 40.1136 5.45455 39.8466 5.45455 39.5398C5.45455 39.2443 5.3892 38.9872 5.25852 38.7685C5.12784 38.5497 4.94318 38.3793 4.70455 38.2571C4.46875 38.1349 4.19034 38.0739 3.86932 38.0739C3.56818 38.0739 3.28409 38.1293 3.01705 38.2401C2.75284 38.348 2.53693 38.5057 2.36932 38.7131C2.2017 38.9176 2.1108 39.1648 2.09659 39.4545H1.07386C1.09091 38.9972 1.22869 38.5966 1.48722 38.2528C1.74574 37.9062 2.08381 37.6364 2.50142 37.4432C2.92188 37.25 3.38352 37.1534 3.88636 37.1534C4.42614 37.1534 4.8892 37.2628 5.27557 37.4815C5.66193 37.6974 5.95881 37.983 6.16619 38.3381C6.37358 38.6932 6.47727 39.0767 6.47727 39.4886C6.47727 39.9801 6.34801 40.3991 6.08949 40.7457C5.83381 41.0923 5.4858 41.3324 5.04545 41.4659V41.5341C5.59659 41.625 6.02699 41.8594 6.33665 42.2372C6.64631 42.6122 6.80114 43.0767 6.80114 43.6307C6.80114 44.1051 6.67188 44.5312 6.41335 44.9091C6.15767 45.2841 5.80824 45.5795 5.36506 45.7955C4.92188 46.0114 4.41761 46.1193 3.85227 46.1193Z" fill="black"/>
<path d="M12 41H50" stroke="black" stroke-width="2"/>
<path d="M12 24H50" stroke="black" stroke-width="2"/>
<path d="M12 7H50" stroke="black" stroke-width="2"/>
</svg>
