<svg xmlns="http://www.w3.org/2000/svg" viewBox="0 0 24 24" fill="none">
  <path fill-rule="evenodd" clip-rule="evenodd" d="M12 22C17.5228 22 22 17.5228 22 12C22 6.47715 17.5228 2 12 2C6.47715 2 2 6.47715 2 12C2 17.5228 6.47715 22 12 22ZM12 24C18.6274 24 24 18.6274 24 12C24 5.37258 18.6274 0 12 0C5.37258 0 0 5.37258 0 12C0 18.6274 5.37258 24 12 24ZM4.7845 6.50731C5.31434 6.35147 5.8702 6.65466 6.02603 7.1845L7.18746 11.1333H9.69622L11.1078 7.13385C11.2522 6.72481 11.6438 6.45548 12.0774 6.46703C12.511 6.47857 12.8878 6.76836 13.0102 7.1845L14.1716 11.1333H16.2792L17.4406 7.1845C17.5965 6.65466 18.1523 6.35147 18.6822 6.50731C19.212 6.66314 19.5152 7.219 19.3594 7.74884L18.3639 11.1333H20C20.5523 11.1333 21 11.5811 21 12.1333C21 12.6856 20.5523 13.1333 20 13.1333H17.7757L16.1848 18.5425C16.0596 18.9681 15.669 19.2603 15.2254 19.2603C14.7818 19.2603 14.3912 18.9681 14.266 18.5425L12.6751 13.1333H11.1112L9.18426 18.5931C9.03989 19.0022 8.64827 19.2715 8.21465 19.26C7.78103 19.2484 7.4043 18.9586 7.28191 18.5425L5.69098 13.1333H4C3.44772 13.1333 3 12.6856 3 12.1333C3 11.5811 3.44772 11.1333 4 11.1333H5.10274L4.1073 7.74884C3.95147 7.219 4.25466 6.66314 4.7845 6.50731ZM7.77569 13.1333L8.3278 15.0105L8.99034 13.1333H7.77569ZM11.8171 11.1333H12.0869L11.9643 10.7165L11.8171 11.1333ZM14.7598 13.1333L15.2254 14.7163L15.691 13.1333H14.7598Z" fill="currentColor"/>
</svg>
