<svg viewBox="0 0 24 24" fill="none" xmlns="http://www.w3.org/2000/svg">
<path fill-rule="evenodd" clip-rule="evenodd" d="M12 20.5C16.6944 20.5 20.5 16.6944 20.5 12C20.5 7.30558 16.6944 3.5 12 3.5C7.30558 3.5 3.5 7.30558 3.5 12C3.5 16.6944 7.30558 20.5 12 20.5ZM12 22C17.5228 22 22 17.5228 22 12C22 6.47715 17.5228 2 12 2C6.47715 2 2 6.47715 2 12C2 17.5228 6.47715 22 12 22Z" fill="currentColor"/>
<path d="M10.9648 13.9003C10.9648 13.9673 11.0192 14.0216 11.0861 14.0216H12.3864C12.4534 14.0216 12.5077 13.9673 12.5077 13.9003C12.5209 12.8895 12.8374 12.4245 13.6022 11.9461C14.4594 11.4272 14.9934 10.7129 15 9.61456C14.9934 8.01078 13.7736 7 11.9934 7C10.6406 7 9.50156 7.63705 9.1282 8.89184C8.99444 9.34139 9.38669 9.73585 9.85572 9.73585C10.2999 9.73585 10.6332 9.35902 10.8718 8.98438C11.1217 8.59192 11.5466 8.40162 11.9802 8.40162C12.6989 8.40162 13.2791 8.88679 13.2725 9.64151C13.2791 10.3154 12.844 10.7668 12.2835 11.1375C11.4528 11.6563 10.978 12.1819 10.9648 13.9003ZM10.7539 15.9488C10.7473 16.5283 11.2154 17 11.7824 17C12.3297 17 12.7978 16.5283 12.7978 15.9488C12.7978 15.3827 12.3297 14.9178 11.7824 14.9111C11.2154 14.9178 10.7473 15.3827 10.7539 15.9488Z" fill="currentColor"/>
</svg>
