<svg  viewBox="0 0 40 40" fill="none" xmlns="http://www.w3.org/2000/svg">
<mask id="mask0_1476_72317" style="mask-type:alpha" maskUnits="userSpaceOnUse" x="0" y="0" width="40" height="40">
<rect width="40" height="40" fill="#D9D9D9"/>
</mask>
<g mask="url(#mask0_1476_72317)">
<path d="M11.4905 22.9169H13.3205C13.5214 22.9169 13.7126 22.8763 13.8942 22.7951C14.0759 22.7139 14.2362 22.6039 14.375 22.465L23.5641 13.3592C23.7201 13.2033 23.7981 13.0216 23.7981 12.8144C23.7981 12.6071 23.7201 12.4255 23.5641 12.2695L21.3847 10.0901C21.2287 9.93411 21.0471 9.85612 20.8398 9.85612C20.6326 9.85612 20.4509 9.93411 20.295 10.0901L11.1892 19.2792C11.0503 19.4181 10.9403 19.5783 10.8591 19.76C10.7779 19.9416 10.7373 20.1328 10.7373 20.3337V22.1637C10.7373 22.3646 10.8126 22.5403 10.9632 22.691C11.1139 22.8416 11.2896 22.9169 11.4905 22.9169ZM18.1732 22.9169H28.3334C28.6881 22.9169 28.9851 22.7973 29.2244 22.558C29.4637 22.3186 29.5833 22.0216 29.5833 21.667C29.5833 21.3123 29.4637 21.0153 29.2244 20.776C28.9851 20.5366 28.6881 20.417 28.3334 20.417H20.6731L18.1732 22.9169ZM10.0642 29.1669L6.72766 32.5034C6.2533 32.9777 5.7079 33.0851 5.09146 32.8255C4.47498 32.5659 4.16675 32.0985 4.16675 31.4233V7.17983C4.16675 6.33794 4.45841 5.62533 5.04175 5.04199C5.62508 4.45866 6.33769 4.16699 7.17958 4.16699H32.8205C33.6624 4.16699 34.375 4.45866 34.9583 5.04199C35.5417 5.62533 35.8333 6.33794 35.8333 7.17983V26.1541C35.8333 26.996 35.5417 27.7086 34.9583 28.2919C34.375 28.8752 33.6624 29.1669 32.8205 29.1669H10.0642ZM7.82062 26.667H32.8205C32.9487 26.667 33.0663 26.6135 33.1731 26.5067C33.28 26.3998 33.3334 26.2823 33.3334 26.1541V7.17983C33.3334 7.05161 33.28 6.93406 33.1731 6.8272C33.0663 6.72037 32.9487 6.66695 32.8205 6.66695H7.17958C7.05136 6.66695 6.93382 6.72037 6.82696 6.8272C6.72012 6.93406 6.66671 7.05161 6.66671 7.17983V27.8209L7.82062 26.667Z" fill="currentColor"/>
</g>
</svg>
