<svg  viewBox="0 0 20 20" fill="none" xmlns="http://www.w3.org/2000/svg">
<path fill-rule="evenodd" clip-rule="evenodd" d="M4.14507 9.99996C4.14507 6.75857 6.80311 4.13091 10.082 4.13091C12.2362 4.13091 14.1235 5.2653 15.1642 6.96426H13.1937C12.8545 6.96426 12.5795 7.23609 12.5795 7.57141C12.5795 7.90672 12.8545 8.17855 13.1937 8.17855H16.1438C16.1526 8.17874 16.1615 8.17874 16.1703 8.17855H16.4692C16.8084 8.17855 17.0834 7.90672 17.0834 7.57141V4.33331C17.0834 3.998 16.8084 3.72617 16.4692 3.72617C16.13 3.72617 15.8551 3.998 15.8551 4.33331V5.80386C14.5509 4.05324 12.4512 2.91663 10.082 2.91663C6.12473 2.91663 2.91675 6.08794 2.91675 9.99996C2.91675 10.3353 3.19172 10.6071 3.53091 10.6071C3.8701 10.6071 4.14507 10.3353 4.14507 9.99996ZM9.91819 15.869C13.197 15.869 15.8551 13.2413 15.8551 9.99996C15.8551 9.66464 16.1301 9.39282 16.4693 9.39282C16.8084 9.39282 17.0834 9.66464 17.0834 9.99996C17.0834 13.912 13.8754 17.0833 9.91819 17.0833C7.54898 17.0833 5.44923 15.9467 4.14509 14.1961V15.6666C4.14509 16.0019 3.87012 16.2737 3.53093 16.2737C3.19174 16.2737 2.91677 16.0019 2.91677 15.6666V12.4285C2.91677 12.0932 3.19174 11.8214 3.53093 11.8214H3.82985C3.83871 11.8212 3.84755 11.8212 3.85637 11.8214H6.80646C7.14565 11.8214 7.42062 12.0932 7.42062 12.4285C7.42062 12.7638 7.14565 13.0357 6.80646 13.0357H4.83595C5.87664 14.7346 7.76396 15.869 9.91819 15.869Z" fill="currentColor"/>
</svg>
