<svg  viewBox="0 0 25 24" fill="none" xmlns="http://www.w3.org/2000/svg">
<g clip-path="url(#clip0_4878_38789)">
<path fill-rule="evenodd" clip-rule="evenodd" d="M3.75 10C3.75 9.95918 3.75028 9.91842 3.75084 9.87774C2.87651 10.1864 2.25 11.02 2.25 12C2.25 12.98 2.87651 13.8136 3.75084 14.1223C3.75028 14.0816 3.75 14.0408 3.75 14V10ZM0.75 12C0.75 10.1276 2.12229 8.5757 3.91598 8.29521C4.70914 4.27879 8.25087 1.25 12.5 1.25C16.7491 1.25 20.2909 4.27879 21.084 8.29521C22.8777 8.5757 24.25 10.1276 24.25 12C24.25 13.7553 23.044 15.2289 21.4154 15.6375C21.7085 16.2594 21.9934 17.0679 22.0947 17.8965C22.2257 18.9685 22.0626 20.2658 20.9502 21.1C19.2603 22.3675 17.4376 22.162 16.4672 21.801C15.2764 22.4079 13.9282 22.75 12.5 22.75C11.0718 22.75 9.72361 22.4079 8.53278 21.801C7.56245 22.162 5.73973 22.3675 4.04979 21.1C2.93745 20.2658 2.77426 18.9685 2.90533 17.8965C3.00664 17.0679 3.29153 16.2594 3.58462 15.6375C1.95601 15.2289 0.75 13.7553 0.75 12ZM18.2813 20.5681C19.2262 19.7358 19.99 18.7028 20.5062 17.5358C20.5494 17.7155 20.5836 17.8976 20.6058 18.0785C20.708 18.9149 20.5379 19.5343 20.0502 19.9C19.4489 20.351 18.8263 20.53 18.2813 20.5681ZM4.49382 17.5358C4.45064 17.7155 4.41636 17.8976 4.39424 18.0785C4.29198 18.9149 4.46212 19.5343 4.94979 19.9C5.55111 20.351 6.17366 20.53 6.71866 20.5681C5.7738 19.7358 5.00997 18.7028 4.49382 17.5358ZM21.2492 14.1223C22.1235 13.8136 22.75 12.98 22.75 12C22.75 11.02 22.1235 10.1864 21.2492 9.87774C21.2497 9.91842 21.25 9.95918 21.25 10V14C21.25 14.0408 21.2497 14.0816 21.2492 14.1223ZM5.46284 8.24909C5.32379 8.80981 5.25 9.39629 5.25 10V14C5.25 18.0041 8.49594 21.25 12.5 21.25C16.5041 21.25 19.75 18.0041 19.75 14V10C19.75 9.55814 19.7105 9.1255 19.6348 8.70545C16.9679 8.27913 15.0286 6.59251 13.9827 5.28755C12.985 6.38567 11.5598 7.07993 10.1894 7.51486C8.44967 8.06701 6.64641 8.25 5.5 8.25C5.48754 8.25 5.47515 8.24969 5.46284 8.24909ZM6.02403 6.73702C7.0353 6.68942 8.41322 6.50484 9.73562 6.08514C11.3261 5.58034 12.6887 4.78302 13.3488 3.6279C13.4823 3.39421 13.7309 3.25 14 3.25C14.2691 3.25 14.5177 3.39421 14.6512 3.6279C15.1801 4.55354 16.7742 6.39689 19.1293 7.06049C18.0016 4.52105 15.4576 2.75 12.5 2.75C9.66962 2.75 7.21806 4.37191 6.02403 6.73702ZM11 11.25C11 11.9404 10.4404 12.5 9.75 12.5C9.05964 12.5 8.5 11.9404 8.5 11.25C8.5 10.5596 9.05964 10 9.75 10C10.4404 10 11 10.5596 11 11.25ZM15.25 12.5C15.9404 12.5 16.5 11.9404 16.5 11.25C16.5 10.5596 15.9404 10 15.25 10C14.5596 10 14 10.5596 14 11.25C14 11.9404 14.5596 12.5 15.25 12.5ZM10.2285 16.8208C10.1481 16.4931 9.85246 16.25 9.5 16.25C9.08579 16.25 8.75 16.5858 8.75 17C8.75 17.4664 9.03424 17.7913 9.27152 17.9783C9.51727 18.172 9.82639 18.3136 10.1415 18.4186C10.7796 18.6313 11.6134 18.75 12.5 18.75C13.3866 18.75 14.2204 18.6313 14.8585 18.4186C15.1736 18.3136 15.4827 18.172 15.7285 17.9783C15.9658 17.7913 16.25 17.4664 16.25 17C16.25 16.5858 15.9142 16.25 15.5 16.25C15.1475 16.25 14.8519 16.4931 14.7715 16.8208C14.704 16.8664 14.5802 16.9303 14.3841 16.9956C13.9364 17.1448 13.2702 17.25 12.5 17.25C11.7298 17.25 11.0636 17.1448 10.6159 16.9956C10.4198 16.9303 10.296 16.8664 10.2285 16.8208ZM14.8204 16.7824C14.8205 16.7824 14.8196 16.7834 14.8174 16.7855L14.8194 16.7834L14.8204 16.7824ZM10.1826 16.7855C10.1804 16.7834 10.1795 16.7824 10.1796 16.7824C10.1796 16.7824 10.1807 16.7834 10.1826 16.7855ZM18.2276 15.8181C18.3281 16.22 18.0837 16.6272 17.6819 16.7276C17.2801 16.8281 16.8729 16.5838 16.7724 16.1819C16.7102 15.9333 16.6109 15.8328 16.5596 15.793C16.5203 15.7626 16.4904 15.7531 16.482 15.7504L16.48 15.7497C16.075 15.7391 15.75 15.4075 15.75 15C15.75 14.5858 16.0858 14.25 16.5 14.25C17.0889 14.25 17.9429 14.6792 18.2276 15.8181ZM7.3181 16.7276C6.91625 16.6272 6.67193 16.22 6.77239 15.8181C7.05712 14.6792 7.91107 14.25 8.5 14.25C8.91421 14.25 9.25 14.5858 9.25 15C9.25 15.4075 8.92497 15.7391 8.52001 15.7497L8.518 15.7504C8.50958 15.7531 8.47969 15.7626 8.44038 15.793C8.38908 15.8328 8.28975 15.9333 8.22761 16.1819C8.12715 16.5838 7.71994 16.8281 7.3181 16.7276Z" fill="currnetColor"/>
</g>
<defs>
<clipPath id="clip0_4878_38789">
<rect width="24" height="24" fill="white" transform="translate(0.5)"/>
</clipPath>
</defs>
</svg>
