<svg xmlns="http://www.w3.org/2000/svg" viewBox="0 0 20 20" fill="none">
  <path fill-rule="evenodd" clip-rule="evenodd" d="M17.052 2.84063C17.2036 2.95907 17.2923 3.1408 17.2923 3.33326V14.1666C17.2923 14.3542 17.2081 14.5318 17.0628 14.6505C16.9176 14.7692 16.7267 14.8164 16.5429 14.7791L9.79232 13.4079V16.6666C9.79232 17.0118 9.5125 17.2916 9.16732 17.2916H5.83398C5.48881 17.2916 5.20898 17.0118 5.20898 16.6666V13.1249H3.33398C2.98881 13.1249 2.70898 12.8451 2.70898 12.4999V5.83325C2.70898 5.48807 2.98881 5.20825 3.33398 5.20825H6.5904L16.5157 2.72692C16.7024 2.68024 16.9003 2.72219 17.052 2.84063ZM6.66732 13.1249L6.45898 13.1249V16.0416H8.54232V13.247L7.05833 13.1249L6.66732 13.1249ZM6.04232 6.45825V11.8749H3.95898V6.45825H6.04232ZM16.0423 13.4019L7.29232 11.6245V6.32124L16.0423 4.13374V13.4019Z" fill="currentColor"/>
</svg>