<svg xmlns="http://www.w3.org/2000/svg" viewBox="0 0 20 20" fill="none">
  <g clip-path="url(#clip0_11588_41400)">
    <path d="M1.66797 5.83342C1.66797 3.53223 3.53345 1.66675 5.83464 1.66675H14.168C16.4692 1.66675 18.3346 3.53223 18.3346 5.83342V14.1667C18.3346 16.4679 16.4692 18.3334 14.168 18.3334H5.83464C3.53345 18.3334 1.66797 16.4679 1.66797 14.1667V5.83342Z" fill="white"/>
    <path fill-rule="evenodd" clip-rule="evenodd" d="M14.168 3.33341H5.83464C4.45392 3.33341 3.33464 4.4527 3.33464 5.83342V14.1667C3.33464 15.5475 4.45392 16.6667 5.83464 16.6667H14.168C15.5487 16.6667 16.668 15.5475 16.668 14.1667V5.83342C16.668 4.4527 15.5487 3.33341 14.168 3.33341ZM5.83464 1.66675C3.53345 1.66675 1.66797 3.53223 1.66797 5.83342V14.1667C1.66797 16.4679 3.53345 18.3334 5.83464 18.3334H14.168C16.4692 18.3334 18.3346 16.4679 18.3346 14.1667V5.83342C18.3346 3.53223 16.4692 1.66675 14.168 1.66675H5.83464Z" fill="currentColor"/>
  </g>
</svg>