<svg viewBox="0 0 24 24" fill="none" xmlns="http://www.w3.org/2000/svg">
<path d="M3 7C3 4.79086 4.79086 3 7 3H17C19.2091 3 21 4.79086 21 7V17C21 19.2091 19.2091 21 17 21H7C4.79086 21 3 19.2091 3 17V7Z" fill="currentColor" stroke="currentColor" stroke-width="2"/>
<path fill-rule="evenodd" clip-rule="evenodd" d="M18.3462 7.79781C18.7392 8.16459 18.7605 8.78054 18.3937 9.17358L11.4207 16.6455C11.0626 17.0293 10.4646 17.06 10.069 16.7148L5.70807 12.9088C5.30304 12.5553 5.26125 11.9404 5.61474 11.5354C5.96822 11.1303 6.58313 11.0886 6.98816 11.442L10.6398 14.629L16.9704 7.84533C17.3372 7.4523 17.9531 7.43102 18.3462 7.79781Z" fill="white"/>
</svg>
