<svg xmlns="http://www.w3.org/2000/svg" viewBox="0 0 28 28" fill="none">
  <path fill-rule="evenodd" clip-rule="evenodd" d="M14 3.5C14.3331 3.5 14.6373 3.68909 14.7847 3.98775L17.667 9.8279L24.112 10.7644C24.4416 10.8123 24.7154 11.0432 24.8183 11.3599C24.9212 11.6767 24.8354 12.0244 24.5969 12.2569L19.9333 16.8028L21.0342 23.2218C21.0905 23.55 20.9555 23.8818 20.6861 24.0776C20.4166 24.2733 20.0594 24.2992 19.7646 24.1442L14 21.1136L8.23546 24.1442C7.94066 24.2992 7.58343 24.2733 7.31398 24.0776C7.04452 23.8818 6.90958 23.55 6.96588 23.2218L8.06682 16.8028L3.40318 12.2569C3.16468 12.0244 3.07885 11.6767 3.18177 11.3599C3.28469 11.0432 3.55852 10.8123 3.88812 10.7644L10.3331 9.8279L13.2154 3.98775C13.3628 3.68909 13.667 3.5 14 3.5ZM14 6.35211L11.6988 11.0149C11.5714 11.2732 11.325 11.4522 11.04 11.4936L5.89428 12.2413L9.61775 15.8708C9.82397 16.0718 9.91808 16.3614 9.8694 16.6453L8.9904 21.7702L13.5929 19.3505C13.8478 19.2165 14.1523 19.2165 14.4072 19.3505L19.0097 21.7702L18.1307 16.6453C18.082 16.3614 18.1761 16.0718 18.3823 15.8708L22.1058 12.2413L16.9601 11.4936C16.6751 11.4522 16.4287 11.2732 16.3013 11.0149L14 6.35211Z" fill="currentColor"/>
</svg>