<svg  viewBox="0 0 25 24" fill="none" xmlns="http://www.w3.org/2000/svg">
<g clip-path="url(#clip0_4878_38441)">
<path fill-rule="evenodd" clip-rule="evenodd" d="M3.91598 8.29521C4.70914 4.27879 8.25087 1.25 12.5 1.25C16.7491 1.25 20.2909 4.27879 21.084 8.29521C22.8777 8.5757 24.25 10.1276 24.25 12C24.25 13.8724 22.8777 15.4243 21.084 15.7048C20.2909 19.7212 16.7491 22.75 12.5 22.75C8.25087 22.75 4.70914 19.7212 3.91598 15.7048C2.12229 15.4243 0.75 13.8724 0.75 12C0.75 10.1276 2.12229 8.5757 3.91598 8.29521ZM3.75084 9.87774C2.87651 10.1864 2.25 11.02 2.25 12C2.25 12.98 2.87651 13.8136 3.75084 14.1223C3.75028 14.0816 3.75 14.0408 3.75 14V10C3.75 9.95918 3.75028 9.91842 3.75084 9.87774ZM21.25 10C21.25 9.95918 21.2497 9.91842 21.2492 9.87774C22.1235 10.1864 22.75 11.02 22.75 12C22.75 12.98 22.1235 13.8136 21.2492 14.1223C21.2497 14.0816 21.25 14.0408 21.25 14V10ZM12.5 2.75C8.49594 2.75 5.25 5.99594 5.25 10V14C5.25 18.0041 8.49594 21.25 12.5 21.25C16.5041 21.25 19.75 18.0041 19.75 14V10C19.75 5.99594 16.5041 2.75 12.5 2.75ZM12.2837 5.72934C12.4273 5.34078 12.2286 4.90945 11.84 4.76595C11.4515 4.62244 11.0202 4.8211 10.8766 5.20966C10.1406 7.2026 8.76224 7.42505 8.3536 7.38041C7.94184 7.33543 7.57157 7.63276 7.52659 8.04453C7.48161 8.45629 7.77894 8.82656 8.19071 8.87154C9.2732 8.98979 11.3056 8.3777 12.2837 5.72934ZM16.7499 6.12746C16.8921 5.73842 16.692 5.30777 16.303 5.16558C15.9139 5.02339 15.4833 5.2235 15.3411 5.61254C14.6118 7.60796 13.2342 7.83507 12.8254 7.79181C12.4135 7.74823 12.0442 8.04681 12.0006 8.45873C11.957 8.87064 12.2556 9.2399 12.6675 9.28349C13.7504 9.39808 15.7808 8.77911 16.7499 6.12746ZM9.75 13.5C10.4404 13.5 11 12.9404 11 12.25C11 11.5596 10.4404 11 9.75 11C9.05964 11 8.5 11.5596 8.5 12.25C8.5 12.9404 9.05964 13.5 9.75 13.5ZM16.5 12.25C16.5 12.9404 15.9404 13.5 15.25 13.5C14.5596 13.5 14 12.9404 14 12.25C14 11.5596 14.5596 11 15.25 11C15.9404 11 16.5 11.5596 16.5 12.25ZM10.25 16C10.25 15.5858 9.91421 15.25 9.5 15.25C9.08579 15.25 8.75 15.5858 8.75 16C8.75 16.8811 9.28567 17.5869 9.96265 18.0383C10.6449 18.4931 11.5442 18.75 12.5 18.75C13.4558 18.75 14.3551 18.4931 15.0373 18.0383C15.7143 17.5869 16.25 16.8811 16.25 16C16.25 15.5858 15.9142 15.25 15.5 15.25C15.0858 15.25 14.75 15.5858 14.75 16C14.75 16.2235 14.6141 16.5176 14.2053 16.7902C13.8017 17.0592 13.201 17.25 12.5 17.25C11.799 17.25 11.1983 17.0592 10.7947 16.7902C10.3859 16.5176 10.25 16.2235 10.25 16Z" fill="currentColor"/>
</g>
<defs>
<clipPath id="clip0_4878_38441">
<rect width="24" height="24" fill="white" transform="translate(0.5)"/>
</clipPath>
</defs>
</svg>
